<svg id="svg" version="1.1" xmlns="http://www.w3.org/2000/svg" xmlns:xlink="http://www.w3.org/1999/xlink" width="400" height="400" viewBox="0, 0, 400,400"><g id="svgg"><path id="path0" d="M200.000 28.311 L 200.000 56.735 207.100 56.946 C 217.859 57.265,227.880 58.781,237.700 61.573 C 238.525 61.808,239.785 62.160,240.500 62.357 C 248.542 64.563,261.540 69.939,268.500 73.938 C 270.724 75.216,272.617 76.296,274.300 77.249 C 284.158 82.826,298.750 95.051,307.609 105.154 C 312.696 110.955,321.200 122.477,321.200 123.568 C 321.200 123.806,321.359 124.000,321.554 124.000 C 321.749 124.000,322.201 124.585,322.558 125.300 C 322.915 126.015,323.747 127.500,324.405 128.600 C 326.487 132.078,331.893 143.249,333.405 147.200 C 335.383 152.370,337.600 159.020,337.600 159.784 C 337.600 160.129,337.758 160.723,337.951 161.105 C 338.580 162.351,339.200 164.634,339.200 165.705 C 339.200 166.281,339.361 166.852,339.558 166.974 C 339.755 167.095,340.017 167.871,340.142 168.697 C 340.267 169.524,340.556 171.235,340.784 172.500 C 342.799 183.646,342.957 185.652,342.957 200.000 C 342.957 214.348,342.799 216.354,340.784 227.500 C 340.556 228.765,340.267 230.476,340.142 231.303 C 340.017 232.129,339.755 232.905,339.558 233.026 C 339.361 233.148,339.200 233.719,339.200 234.295 C 339.200 235.366,338.580 237.649,337.951 238.895 C 337.758 239.277,337.600 239.871,337.600 240.216 C 337.600 240.980,335.383 247.630,333.405 252.800 C 331.893 256.751,326.487 267.922,324.405 271.400 C 323.747 272.500,322.915 273.985,322.558 274.700 C 322.201 275.415,321.749 276.000,321.554 276.000 C 321.359 276.000,321.200 276.194,321.200 276.432 C 321.200 278.385,308.882 293.917,301.400 301.400 C 293.917 308.882,278.385 321.200,276.432 321.200 C 276.194 321.200,276.000 321.347,276.000 321.526 C 276.000 321.705,275.325 322.217,274.500 322.664 C 273.675 323.111,272.280 323.892,271.400 324.400 C 270.520 324.908,268.900 325.808,267.800 326.400 C 266.700 326.992,265.170 327.826,264.400 328.254 C 259.392 331.036,242.286 337.600,240.045 337.600 C 239.606 337.600,239.149 337.759,239.029 337.954 C 238.908 338.149,238.313 338.407,237.705 338.529 C 237.097 338.651,235.790 338.952,234.800 339.197 C 231.468 340.024,229.409 340.451,227.800 340.649 C 226.920 340.757,225.840 341.002,225.400 341.193 C 223.654 341.953,215.333 342.796,207.100 343.048 L 200.000 343.265 200.000 371.689 L 200.000 400.113 204.485 399.901 C 207.238 399.770,209.028 399.517,209.119 399.244 C 209.200 399.000,209.702 398.800,210.233 398.800 C 210.765 398.800,211.200 398.620,211.200 398.400 C 211.200 398.180,211.560 398.000,212.000 398.000 C 212.440 398.000,212.800 397.859,212.800 397.687 C 212.800 397.515,213.285 397.334,213.878 397.285 C 214.470 397.236,215.055 397.062,215.178 396.898 C 215.648 396.268,217.903 395.235,218.208 395.511 C 218.384 395.670,218.399 395.575,218.241 395.300 C 218.063 394.991,218.191 394.800,218.576 394.800 C 218.919 394.800,219.200 394.609,219.200 394.376 C 219.200 394.143,219.365 394.055,219.568 394.180 C 219.770 394.305,220.207 394.136,220.539 393.804 C 220.871 393.472,221.336 393.200,221.571 393.200 C 221.807 393.200,222.000 393.020,222.000 392.800 C 222.000 392.580,222.197 392.400,222.438 392.400 C 222.679 392.400,223.375 392.045,223.983 391.612 C 224.592 391.178,225.177 390.910,225.282 391.015 C 225.388 391.121,226.041 390.666,226.733 390.004 C 227.426 389.342,228.225 388.800,228.508 388.800 C 228.791 388.800,229.276 388.450,229.585 388.021 C 229.893 387.593,230.278 387.325,230.441 387.425 C 230.603 387.525,231.001 387.342,231.325 387.018 C 231.649 386.694,232.137 386.377,232.409 386.314 C 232.681 386.251,233.325 385.791,233.841 385.292 C 234.357 384.793,235.321 384.276,235.983 384.143 C 236.645 384.011,237.089 383.745,236.970 383.551 C 236.785 383.253,237.107 383.164,238.208 383.208 C 238.667 383.227,239.502 382.176,239.296 381.838 C 239.175 381.639,239.270 381.596,239.506 381.742 C 239.742 381.888,240.179 381.781,240.477 381.504 C 241.026 380.993,241.790 380.711,242.700 380.682 C 242.975 380.674,243.200 380.517,243.200 380.333 C 243.200 380.150,243.560 380.000,244.000 380.000 C 244.440 380.000,244.800 379.820,244.800 379.600 C 244.800 379.380,245.340 379.200,246.000 379.200 C 246.660 379.200,247.200 379.020,247.200 378.800 C 247.200 378.580,247.740 378.400,248.400 378.400 C 249.060 378.400,249.600 378.220,249.600 378.000 C 249.600 377.776,250.707 377.600,252.120 377.600 C 253.594 377.600,254.846 377.394,255.137 377.103 C 255.532 376.708,255.710 376.728,256.011 377.203 C 256.262 377.602,256.390 377.634,256.394 377.300 C 256.398 376.931,257.550 376.800,260.800 376.800 C 263.467 376.800,265.200 376.958,265.200 377.200 C 265.200 377.420,265.391 377.600,265.624 377.600 C 265.857 377.600,265.936 377.420,265.800 377.200 C 265.664 376.980,265.823 376.800,266.153 376.800 C 266.483 376.800,266.858 376.970,266.986 377.178 C 267.316 377.711,289.864 377.743,290.194 377.210 C 290.333 376.985,291.257 376.800,292.247 376.800 C 293.345 376.800,293.951 376.644,293.800 376.400 C 293.653 376.162,294.129 376.000,294.976 376.000 C 295.759 376.000,296.400 375.820,296.400 375.600 C 296.400 375.380,296.754 375.200,297.188 375.200 C 298.201 375.200,301.200 373.643,301.200 373.117 C 301.200 372.895,301.472 372.819,301.805 372.947 C 302.198 373.097,303.327 372.271,305.026 370.589 C 306.464 369.165,307.562 368.000,307.466 368.000 C 307.371 368.000,307.900 367.336,308.643 366.525 C 309.386 365.714,310.097 364.724,310.224 364.325 C 310.350 363.926,310.622 363.600,310.827 363.600 C 311.032 363.600,311.200 363.357,311.200 363.059 C 311.200 362.762,311.740 361.954,312.400 361.263 C 313.060 360.572,313.600 359.680,313.600 359.279 C 313.600 358.879,313.960 358.164,314.400 357.692 C 314.840 357.220,315.200 356.646,315.200 356.417 C 315.200 356.188,315.391 356.000,315.624 356.000 C 315.857 356.000,315.945 355.835,315.820 355.632 C 315.695 355.430,315.864 354.993,316.196 354.661 C 316.528 354.329,316.800 353.785,316.800 353.452 C 316.800 353.119,316.980 352.736,317.200 352.600 C 317.420 352.464,317.600 351.993,317.600 351.553 C 317.600 351.113,317.780 350.864,318.000 351.000 C 318.220 351.136,318.400 350.877,318.400 350.424 C 318.400 349.971,318.580 349.600,318.800 349.600 C 319.020 349.600,319.200 349.229,319.200 348.776 C 319.200 348.323,319.380 348.064,319.600 348.200 C 319.820 348.336,320.000 348.053,320.000 347.571 C 320.000 347.088,320.388 346.358,320.861 345.947 C 321.335 345.536,321.594 345.200,321.436 345.200 C 321.156 345.200,323.158 341.195,323.635 340.800 C 323.768 340.690,323.998 340.105,324.146 339.500 C 324.294 338.895,324.592 338.400,324.808 338.400 C 325.023 338.400,325.200 338.130,325.200 337.800 C 325.200 337.470,325.380 337.200,325.600 337.200 C 325.820 337.200,326.000 336.916,326.000 336.569 C 326.000 336.221,326.713 335.231,327.584 334.369 C 328.456 333.506,329.088 332.800,328.988 332.800 C 328.889 332.800,329.108 332.449,329.475 332.020 C 329.842 331.592,330.295 331.335,330.481 331.450 C 330.667 331.565,330.770 331.428,330.710 331.144 C 330.649 330.861,331.007 330.444,331.504 330.218 C 332.001 329.992,332.499 329.519,332.610 329.168 C 332.722 328.816,333.260 328.289,333.807 327.996 C 334.353 327.704,334.800 327.315,334.800 327.132 C 334.800 326.950,335.171 326.800,335.624 326.800 C 336.077 326.800,336.336 326.620,336.200 326.400 C 336.064 326.180,336.233 326.000,336.576 326.000 C 336.919 326.000,337.200 325.820,337.200 325.600 C 337.200 325.380,337.393 325.200,337.629 325.200 C 337.864 325.200,338.327 324.930,338.657 324.600 C 338.987 324.270,339.604 324.000,340.029 324.000 C 340.453 324.000,340.800 323.820,340.800 323.600 C 340.800 323.380,341.070 323.200,341.400 323.200 C 341.730 323.200,342.000 323.032,342.000 322.827 C 342.000 322.622,342.405 322.330,342.900 322.180 C 343.395 322.029,344.146 321.612,344.569 321.253 C 345.011 320.878,345.205 320.825,345.027 321.130 C 344.770 321.568,344.861 321.569,345.558 321.133 C 346.021 320.844,346.400 320.471,346.400 320.304 C 346.400 320.137,346.760 320.000,347.200 320.000 C 347.640 320.000,348.000 319.820,348.000 319.600 C 348.000 319.380,348.360 319.200,348.800 319.200 C 349.240 319.200,349.600 319.020,349.600 318.800 C 349.600 318.580,349.960 318.400,350.400 318.400 C 350.840 318.400,351.200 318.220,351.200 318.000 C 351.200 317.780,351.560 317.600,352.000 317.600 C 352.440 317.600,352.801 317.465,352.803 317.300 C 352.807 316.935,354.749 316.000,355.503 316.000 C 355.802 316.000,355.936 315.820,355.800 315.600 C 355.664 315.380,355.857 315.200,356.229 315.200 C 356.602 315.200,357.229 314.828,357.623 314.374 C 358.017 313.919,358.443 313.559,358.570 313.574 C 359.529 313.683,360.038 313.451,361.137 312.400 C 361.828 311.740,362.664 311.200,362.996 311.200 C 363.328 311.200,363.600 311.032,363.600 310.827 C 363.600 310.622,363.974 310.335,364.430 310.190 C 364.887 310.045,365.877 309.328,366.630 308.597 C 367.384 307.865,368.000 307.346,368.000 307.443 C 368.000 307.539,368.448 307.325,368.997 306.965 C 369.545 306.606,369.899 306.160,369.784 305.974 C 369.669 305.788,370.030 305.337,370.587 304.972 C 371.144 304.607,371.600 304.048,371.600 303.730 C 371.600 303.413,371.780 303.264,372.000 303.400 C 372.220 303.536,372.400 303.289,372.400 302.852 C 372.400 302.415,372.704 301.753,373.076 301.381 C 374.044 300.413,375.200 298.139,375.200 297.201 C 375.200 296.761,375.380 296.400,375.600 296.400 C 375.820 296.400,376.000 295.759,376.000 294.976 C 376.000 294.193,376.145 293.643,376.323 293.753 C 376.501 293.862,376.691 293.205,376.744 292.292 C 376.798 291.378,377.018 290.420,377.232 290.162 C 377.749 289.538,377.696 265.894,377.178 266.214 C 376.948 266.355,376.800 264.472,376.800 261.424 C 376.800 258.341,376.955 256.400,377.200 256.400 C 377.435 256.400,377.600 255.000,377.600 253.000 C 377.600 251.000,377.765 249.600,378.000 249.600 C 378.220 249.600,378.400 249.060,378.400 248.400 C 378.400 247.740,378.580 247.200,378.800 247.200 C 379.020 247.200,379.200 246.660,379.200 246.000 C 379.200 245.340,379.380 244.800,379.600 244.800 C 379.820 244.800,380.000 244.440,380.000 244.000 C 380.000 243.560,380.210 243.200,380.467 243.200 C 380.723 243.200,380.828 243.095,380.700 242.967 C 380.345 242.612,382.374 238.801,382.921 238.794 C 383.283 238.789,383.280 238.711,382.909 238.476 C 382.548 238.246,382.627 238.013,383.209 237.594 C 383.644 237.280,384.000 236.821,384.000 236.573 C 384.000 235.781,385.268 233.549,385.844 233.328 C 386.150 233.210,386.400 232.774,386.400 232.357 C 386.400 231.941,386.580 231.600,386.800 231.600 C 387.020 231.600,387.200 231.322,387.200 230.983 C 387.200 230.346,387.690 229.625,388.900 228.483 C 389.285 228.120,389.600 227.592,389.600 227.311 C 389.600 227.030,389.737 226.800,389.904 226.800 C 390.071 226.800,390.444 226.421,390.733 225.958 C 391.169 225.261,391.168 225.163,390.730 225.388 C 390.438 225.537,390.515 225.401,390.900 225.086 C 391.285 224.770,391.600 224.206,391.600 223.832 C 391.600 223.459,391.780 223.264,392.000 223.400 C 392.220 223.536,392.400 223.277,392.400 222.824 C 392.400 222.371,392.580 222.000,392.800 222.000 C 393.020 222.000,393.200 221.745,393.200 221.433 C 393.200 221.122,393.366 220.807,393.570 220.733 C 393.773 220.660,393.998 220.330,394.070 220.000 C 394.141 219.670,394.515 219.109,394.900 218.753 C 395.285 218.397,395.600 217.812,395.600 217.453 C 395.600 217.094,395.780 216.800,396.000 216.800 C 396.220 216.800,396.400 216.440,396.400 216.000 C 396.400 215.560,396.625 215.197,396.900 215.194 C 397.233 215.190,397.200 215.058,396.800 214.800 C 396.470 214.587,396.380 214.408,396.600 214.403 C 397.044 214.393,398.000 212.545,398.000 211.697 C 398.000 211.398,398.180 211.264,398.400 211.400 C 398.627 211.540,398.800 211.204,398.800 210.624 C 398.800 210.061,398.942 209.600,399.115 209.600 C 399.635 209.600,399.794 207.358,399.794 200.000 C 399.794 192.642,399.635 190.400,399.115 190.400 C 398.942 190.400,398.800 189.939,398.800 189.376 C 398.800 188.796,398.627 188.460,398.400 188.600 C 398.180 188.736,398.000 188.487,398.000 188.047 C 398.000 187.607,397.820 187.136,397.600 187.000 C 397.380 186.864,397.200 186.391,397.200 185.948 C 397.200 185.505,396.928 184.871,396.596 184.539 C 396.264 184.207,396.095 183.770,396.220 183.568 C 396.345 183.365,396.257 183.200,396.024 183.200 C 395.791 183.200,395.600 182.964,395.600 182.675 C 395.600 182.387,395.285 181.795,394.900 181.360 C 394.515 180.925,394.141 180.306,394.070 179.984 C 393.998 179.663,393.773 179.340,393.570 179.267 C 393.366 179.193,393.200 178.878,393.200 178.567 C 393.200 178.255,393.020 178.000,392.800 178.000 C 392.580 178.000,392.400 177.629,392.400 177.176 C 392.400 176.723,392.220 176.464,392.000 176.600 C 391.780 176.736,391.600 176.541,391.600 176.168 C 391.600 175.794,391.285 175.230,390.900 174.914 C 390.515 174.599,390.438 174.463,390.730 174.612 C 391.168 174.837,391.169 174.739,390.733 174.042 C 390.444 173.579,390.071 173.200,389.904 173.200 C 389.737 173.200,389.600 172.939,389.600 172.620 C 389.600 172.301,389.356 171.896,389.058 171.720 C 388.435 171.352,387.434 169.600,387.847 169.600 C 387.999 169.600,387.735 169.264,387.261 168.853 C 386.788 168.442,386.400 167.832,386.400 167.496 C 386.400 167.160,386.150 166.790,385.844 166.672 C 385.299 166.463,384.000 164.235,384.000 163.510 C 384.000 163.308,383.728 162.871,383.396 162.539 C 383.064 162.207,382.895 161.770,383.020 161.568 C 383.145 161.365,383.066 161.200,382.845 161.200 C 382.394 161.200,380.271 157.204,380.717 157.194 C 380.872 157.191,380.820 157.056,380.600 156.894 C 379.904 156.382,379.200 154.846,379.200 153.839 C 379.200 153.304,379.028 152.807,378.818 152.733 C 378.607 152.660,378.390 151.925,378.336 151.100 C 378.281 150.275,378.093 149.600,377.918 149.600 C 377.743 149.600,377.600 148.646,377.600 147.480 C 377.600 146.314,377.377 145.137,377.103 144.863 C 376.708 144.468,376.728 144.290,377.203 143.989 C 377.602 143.738,377.634 143.610,377.300 143.606 C 376.927 143.602,376.800 142.325,376.800 138.576 C 376.800 135.813,376.942 133.640,377.115 133.748 C 377.288 133.855,377.467 133.495,377.512 132.949 C 377.570 132.259,377.443 132.042,377.097 132.237 C 376.705 132.458,376.706 132.403,377.100 131.979 C 377.714 131.318,377.828 110.389,377.221 109.780 C 377.013 109.571,376.799 108.646,376.745 107.724 C 376.691 106.802,376.501 106.138,376.323 106.247 C 376.145 106.357,376.000 105.822,376.000 105.057 C 376.000 104.292,375.822 103.607,375.603 103.533 C 375.385 103.460,375.165 102.894,375.114 102.275 C 375.063 101.656,374.792 100.959,374.511 100.726 C 374.230 100.493,374.000 100.094,374.000 99.840 C 374.000 99.586,373.640 99.070,373.200 98.693 C 372.760 98.316,372.400 97.661,372.400 97.237 C 372.400 96.813,372.265 96.407,372.100 96.333 C 371.935 96.260,371.279 95.570,370.642 94.800 C 370.005 94.030,369.323 93.400,369.127 93.400 C 368.931 93.400,368.600 93.130,368.392 92.800 C 368.183 92.470,368.009 92.333,368.006 92.496 C 368.003 92.659,367.486 92.254,366.857 91.596 C 366.228 90.938,365.508 90.400,365.257 90.400 C 365.006 90.400,364.800 90.220,364.800 90.000 C 364.800 89.780,364.530 89.600,364.200 89.600 C 363.870 89.600,363.600 89.420,363.600 89.200 C 363.600 88.980,363.312 88.800,362.960 88.800 C 362.609 88.800,361.817 88.260,361.200 87.600 C 360.583 86.940,359.879 86.400,359.635 86.400 C 358.764 86.400,355.610 84.708,355.826 84.357 C 355.948 84.161,355.677 84.000,355.224 84.000 C 354.771 84.000,354.400 83.820,354.400 83.600 C 354.400 83.380,354.040 83.200,353.600 83.200 C 353.160 83.200,352.800 83.020,352.800 82.800 C 352.800 82.580,352.440 82.400,352.000 82.400 C 351.560 82.400,351.200 82.220,351.200 82.000 C 351.200 81.780,350.840 81.600,350.400 81.600 C 349.960 81.600,349.600 81.420,349.600 81.200 C 349.600 80.980,349.317 80.800,348.971 80.800 C 348.626 80.800,348.071 80.528,347.739 80.196 C 347.407 79.864,346.970 79.695,346.768 79.820 C 346.565 79.945,346.400 79.900,346.400 79.720 C 346.400 79.540,346.021 79.156,345.558 78.867 C 344.861 78.431,344.769 78.432,345.023 78.870 C 345.191 79.162,344.882 78.993,344.335 78.496 C 343.788 77.999,343.245 77.689,343.127 77.806 C 343.010 77.923,342.686 77.745,342.408 77.410 C 342.130 77.074,341.654 76.800,341.351 76.800 C 341.048 76.800,340.800 76.642,340.800 76.450 C 340.800 76.258,340.264 75.993,339.609 75.862 C 338.953 75.731,337.847 75.078,337.149 74.412 C 336.452 73.745,335.638 73.200,335.341 73.200 C 335.043 73.200,334.800 73.050,334.800 72.868 C 334.800 72.685,334.353 72.296,333.807 72.004 C 333.260 71.711,332.722 71.184,332.610 70.832 C 332.499 70.481,332.001 70.008,331.504 69.782 C 331.007 69.556,330.649 69.139,330.710 68.856 C 330.770 68.572,330.658 68.441,330.460 68.563 C 330.263 68.685,329.763 68.322,329.350 67.757 C 328.938 67.191,328.015 66.079,327.300 65.286 C 326.585 64.493,326.000 63.609,326.000 63.322 C 326.000 63.035,325.820 62.800,325.600 62.800 C 325.380 62.800,325.200 62.607,325.200 62.371 C 325.200 62.136,324.930 61.673,324.600 61.343 C 324.270 61.013,324.000 60.396,324.000 59.971 C 324.000 59.547,323.854 59.200,323.675 59.200 C 323.496 59.200,323.102 58.570,322.800 57.800 C 322.498 57.030,322.148 56.400,322.022 56.400 C 321.896 56.400,321.556 56.021,321.267 55.558 C 320.935 55.027,320.910 54.821,321.200 55.000 C 321.490 55.179,321.465 54.973,321.133 54.442 C 320.844 53.979,320.471 53.600,320.304 53.600 C 320.137 53.600,320.000 53.139,320.000 52.576 C 320.000 51.996,319.827 51.660,319.600 51.800 C 319.380 51.936,319.200 51.677,319.200 51.224 C 319.200 50.771,319.020 50.400,318.800 50.400 C 318.580 50.400,318.400 50.029,318.400 49.576 C 318.400 49.123,318.220 48.864,318.000 49.000 C 317.780 49.136,317.600 48.887,317.600 48.447 C 317.600 48.007,317.420 47.536,317.200 47.400 C 316.980 47.264,316.800 46.803,316.800 46.376 C 316.800 45.949,316.620 45.600,316.400 45.600 C 316.180 45.600,316.000 45.229,316.000 44.776 C 316.000 44.323,315.820 44.064,315.600 44.200 C 315.380 44.336,315.196 44.212,315.191 43.924 C 315.186 43.636,314.830 42.950,314.400 42.400 C 313.970 41.850,313.614 41.067,313.609 40.660 C 313.604 40.254,313.060 39.417,312.400 38.800 C 311.740 38.183,311.200 37.406,311.200 37.073 C 311.200 36.739,311.065 36.407,310.900 36.333 C 310.735 36.260,309.902 35.176,309.050 33.923 C 308.197 32.671,307.241 31.548,306.924 31.426 C 306.608 31.305,306.447 31.048,306.566 30.856 C 306.685 30.663,306.222 30.077,305.538 29.553 C 304.853 29.029,303.840 28.211,303.287 27.736 C 302.733 27.260,302.037 26.964,301.740 27.078 C 301.443 27.192,301.200 27.082,301.200 26.833 C 301.200 26.392,299.300 25.406,298.700 25.535 C 298.535 25.571,298.400 25.420,298.400 25.200 C 298.400 24.980,297.950 24.800,297.400 24.800 C 296.850 24.800,296.400 24.620,296.400 24.400 C 296.400 24.180,295.860 24.000,295.200 24.000 C 294.540 24.000,294.000 23.837,294.000 23.639 C 294.000 22.989,289.991 22.725,277.800 22.570 C 270.027 22.472,266.011 22.554,266.400 22.803 C 266.730 23.015,266.811 23.191,266.580 23.194 C 266.349 23.197,265.944 22.984,265.680 22.720 C 265.307 22.347,265.200 22.347,265.200 22.720 C 265.200 23.066,263.892 23.198,260.500 23.194 C 257.318 23.190,255.994 23.063,256.400 22.800 C 256.814 22.532,255.978 22.410,253.700 22.406 C 251.885 22.403,250.400 22.257,250.400 22.082 C 250.400 21.907,249.725 21.719,248.900 21.664 C 248.075 21.610,247.340 21.393,247.267 21.182 C 247.193 20.972,246.518 20.800,245.767 20.800 C 245.015 20.800,244.400 20.620,244.400 20.400 C 244.400 20.180,244.130 20.000,243.800 20.000 C 243.470 20.000,243.200 19.809,243.200 19.576 C 243.200 19.343,243.035 19.255,242.832 19.380 C 242.630 19.505,242.192 19.335,241.859 19.001 C 241.525 18.668,240.790 18.357,240.226 18.310 C 239.657 18.263,239.100 17.916,238.979 17.533 C 238.852 17.133,238.516 16.934,238.183 17.062 C 237.865 17.184,237.496 16.995,237.361 16.642 C 237.225 16.289,236.846 16.000,236.519 16.000 C 235.896 16.000,233.498 14.461,233.266 13.912 C 233.192 13.738,232.990 13.682,232.817 13.789 C 232.645 13.896,232.092 13.627,231.590 13.192 C 231.088 12.756,230.553 12.400,230.401 12.400 C 230.249 12.400,229.601 11.950,228.962 11.400 C 228.323 10.851,227.667 10.401,227.505 10.400 C 227.342 10.400,226.892 10.129,226.505 9.797 C 226.117 9.465,225.620 9.175,225.400 9.153 C 225.180 9.130,224.522 8.772,223.938 8.356 C 223.354 7.940,222.679 7.600,222.438 7.600 C 222.197 7.600,222.000 7.420,222.000 7.200 C 222.000 6.980,221.745 6.800,221.433 6.800 C 221.122 6.800,220.807 6.634,220.733 6.430 C 220.660 6.227,220.330 6.002,220.000 5.930 C 219.670 5.859,219.109 5.485,218.753 5.100 C 218.397 4.715,217.812 4.400,217.453 4.400 C 217.094 4.400,216.800 4.220,216.800 4.000 C 216.800 3.780,216.440 3.600,216.000 3.600 C 215.560 3.600,215.200 3.420,215.200 3.200 C 215.200 2.980,214.761 2.800,214.224 2.800 C 213.687 2.800,213.136 2.620,213.000 2.400 C 212.864 2.180,212.393 2.000,211.953 2.000 C 211.513 2.000,211.264 1.820,211.400 1.600 C 211.538 1.377,211.231 1.200,210.704 1.200 C 210.185 1.200,209.559 0.999,209.313 0.753 C 209.068 0.508,206.874 0.213,204.433 0.097 L 200.000 -0.113 200.000 28.311 M200.000 181.200 C 200.000 259.896,200.029 263.200,200.720 263.200 C 201.116 263.200,201.611 263.360,201.820 263.555 C 202.188 263.898,203.924 264.828,215.000 270.616 C 217.860 272.110,221.550 274.046,223.200 274.917 C 224.850 275.789,228.000 277.442,230.200 278.592 C 232.400 279.741,236.000 281.630,238.200 282.789 C 240.400 283.948,244.090 285.890,246.400 287.105 C 248.710 288.320,251.371 289.738,252.314 290.257 C 254.659 291.547,254.355 291.662,260.400 287.219 C 263.370 285.036,266.136 283.008,266.547 282.712 C 267.273 282.189,267.263 281.988,266.194 275.587 C 265.589 271.964,264.945 268.100,264.763 267.000 C 264.581 265.900,264.228 263.830,263.979 262.400 C 263.730 260.970,263.379 258.900,263.200 257.800 C 263.021 256.700,262.661 254.630,262.400 253.200 C 262.139 251.770,261.777 249.700,261.595 248.600 C 260.865 244.188,260.373 241.294,260.000 239.200 C 259.784 237.990,259.412 235.830,259.172 234.400 C 258.932 232.970,258.577 230.900,258.382 229.800 C 258.188 228.700,257.861 226.720,257.656 225.400 C 257.451 224.080,257.148 222.667,256.983 222.260 C 256.745 221.670,257.528 220.706,260.842 217.514 C 281.011 198.081,300.800 178.489,300.800 177.955 C 300.800 177.691,299.791 174.360,298.557 170.554 C 296.044 162.800,296.362 163.172,291.800 162.638 C 290.700 162.510,288.540 162.216,287.000 161.987 C 280.022 160.946,278.450 160.715,276.200 160.400 C 274.880 160.215,272.495 159.870,270.900 159.632 C 269.305 159.394,266.695 159.006,265.100 158.768 C 259.247 157.896,257.341 157.616,254.600 157.225 C 253.060 157.006,250.540 156.642,249.000 156.416 C 241.789 155.359,240.035 155.117,237.800 154.868 L 235.400 154.600 227.600 138.954 C 223.310 130.349,217.200 118.019,214.023 111.554 C 207.340 97.956,208.391 99.214,203.700 99.206 L 200.000 99.200 200.000 181.200 " stroke="none" fill="#fba404" fill-rule="evenodd"></path><path id="path1" d="M191.925 57.409 C 191.774 57.559,189.614 57.846,187.125 58.045 C 180.697 58.559,175.717 59.267,170.700 60.379 C 169.655 60.610,168.035 60.966,167.100 61.170 C 165.518 61.514,164.161 61.876,160.900 62.823 C 160.185 63.030,159.015 63.362,158.300 63.559 C 150.769 65.642,137.145 71.484,129.600 75.867 C 128.610 76.443,127.170 77.268,126.400 77.701 C 124.284 78.892,115.295 85.099,112.800 87.092 C 111.590 88.059,110.240 89.133,109.800 89.479 C 103.893 94.129,94.129 103.893,89.479 109.800 C 89.133 110.240,88.059 111.590,87.092 112.800 C 85.099 115.295,78.892 124.284,77.701 126.400 C 77.268 127.170,76.441 128.610,75.864 129.600 C 71.614 136.896,65.597 150.929,63.559 158.300 C 63.212 159.556,62.879 160.730,61.970 163.900 C 61.733 164.725,61.373 166.165,61.170 167.100 C 60.966 168.035,60.610 169.655,60.379 170.700 C 56.468 188.341,56.468 211.659,60.379 229.300 C 60.610 230.345,60.966 231.965,61.170 232.900 C 61.373 233.835,61.723 235.230,61.947 236.000 C 62.395 237.536,63.003 239.688,63.559 241.700 C 65.597 249.071,71.614 263.104,75.864 270.400 C 76.441 271.390,77.268 272.830,77.701 273.600 C 78.892 275.716,85.099 284.705,87.092 287.200 C 88.059 288.410,89.133 289.760,89.479 290.200 C 93.135 294.843,102.129 304.095,106.800 308.017 C 108.230 309.218,109.490 310.299,109.600 310.420 C 110.687 311.614,125.074 321.723,126.814 322.515 C 127.136 322.662,128.300 323.321,129.400 323.980 C 136.554 328.267,150.741 334.373,158.400 336.463 C 159.170 336.673,160.385 337.015,161.100 337.223 C 164.634 338.248,165.529 338.488,167.100 338.830 C 168.035 339.034,169.655 339.391,170.700 339.624 C 185.308 342.882,207.821 343.578,222.400 341.221 C 223.610 341.026,225.410 340.746,226.400 340.601 C 227.390 340.455,228.650 340.190,229.200 340.011 C 229.750 339.832,231.280 339.467,232.600 339.200 C 233.920 338.933,235.450 338.575,236.000 338.404 C 236.550 338.233,237.810 337.870,238.800 337.598 C 248.748 334.861,261.661 329.552,269.600 324.934 C 270.590 324.358,271.940 323.579,272.600 323.203 C 291.754 312.285,312.285 291.754,323.203 272.600 C 323.579 271.940,324.358 270.590,324.934 269.600 C 329.593 261.591,334.822 248.843,337.651 238.600 C 337.894 237.720,338.233 236.550,338.404 236.000 C 338.575 235.450,338.933 233.920,339.200 232.600 C 339.467 231.280,339.833 229.750,340.012 229.200 C 340.192 228.650,340.454 227.300,340.595 226.200 C 340.737 225.100,341.014 223.210,341.212 222.000 C 342.341 215.109,342.600 210.997,342.600 200.000 C 342.600 189.003,342.341 184.891,341.212 178.000 C 341.014 176.790,340.737 174.900,340.595 173.800 C 340.454 172.700,340.192 171.350,340.012 170.800 C 339.833 170.250,339.467 168.720,339.200 167.400 C 338.933 166.080,338.575 164.550,338.404 164.000 C 338.233 163.450,337.894 162.280,337.651 161.400 C 334.822 151.157,329.593 138.409,324.934 130.400 C 324.358 129.410,323.579 128.060,323.203 127.400 C 312.537 108.689,286.997 83.194,272.400 76.686 C 272.070 76.539,270.900 75.878,269.800 75.218 C 262.270 70.701,248.947 65.193,238.800 62.402 C 237.810 62.130,236.550 61.763,236.000 61.587 C 235.450 61.411,234.370 61.144,233.600 60.993 C 232.830 60.841,231.480 60.545,230.600 60.334 C 227.408 59.568,221.354 58.539,216.600 57.954 C 212.711 57.475,192.309 57.024,191.925 57.409 M208.218 99.106 C 208.447 99.268,209.468 101.110,210.486 103.200 C 211.504 105.290,216.914 116.270,222.510 127.600 C 228.105 138.930,233.268 149.416,233.985 150.903 C 235.532 154.115,235.366 153.992,238.731 154.445 C 246.686 155.516,250.086 156.004,255.200 156.804 C 256.410 156.993,258.840 157.353,260.600 157.602 C 262.360 157.852,264.970 158.228,266.400 158.439 C 267.830 158.649,270.170 158.992,271.600 159.200 C 273.030 159.408,275.460 159.768,277.000 160.000 C 278.540 160.232,281.060 160.600,282.600 160.818 C 284.140 161.036,286.660 161.396,288.200 161.618 C 289.740 161.840,291.900 162.116,293.000 162.230 C 295.484 162.489,296.716 163.081,297.026 164.164 C 297.958 167.413,300.965 176.768,301.317 177.513 C 301.716 178.356,301.295 178.859,295.787 184.113 C 292.508 187.241,284.239 195.292,277.412 202.005 C 270.586 208.718,263.334 215.828,261.297 217.805 L 257.595 221.400 258.015 224.200 C 258.597 228.071,259.530 233.630,260.400 238.400 C 260.661 239.830,261.021 241.900,261.200 243.000 C 261.379 244.100,261.723 246.125,261.963 247.500 C 262.203 248.875,262.572 251.035,262.781 252.300 C 262.991 253.565,263.629 257.390,264.200 260.800 C 264.771 264.210,265.416 268.080,265.635 269.400 C 265.853 270.720,266.204 272.790,266.415 274.000 C 266.626 275.210,266.959 277.311,267.156 278.669 C 267.354 280.027,267.628 281.322,267.766 281.545 C 268.083 282.058,266.855 283.231,263.838 285.297 C 262.539 286.186,261.189 287.147,260.838 287.431 C 258.758 289.116,256.338 290.800,255.997 290.800 C 255.778 290.800,255.600 290.980,255.600 291.200 C 255.600 291.708,253.486 291.726,252.980 291.222 C 252.771 291.014,250.707 289.874,248.393 288.689 C 246.079 287.503,242.299 285.530,239.993 284.303 C 230.983 279.512,226.080 276.943,223.397 275.608 C 221.859 274.843,220.510 274.120,220.400 274.002 C 220.290 273.885,218.760 273.059,217.000 272.166 C 215.240 271.274,211.910 269.539,209.600 268.310 C 198.996 262.670,200.801 262.963,195.093 265.955 C 184.030 271.755,181.558 273.040,177.800 274.951 C 175.600 276.069,173.710 277.078,173.600 277.192 C 173.490 277.307,172.663 277.781,171.763 278.246 C 162.463 283.053,154.218 287.373,148.459 290.454 C 146.396 291.559,144.611 291.925,144.333 291.300 C 144.260 291.135,143.030 290.199,141.600 289.221 C 140.170 288.243,138.910 287.337,138.800 287.207 C 138.690 287.078,137.340 286.098,135.800 285.029 C 131.740 282.210,131.920 283.210,133.656 273.109 C 134.498 268.209,135.391 262.940,135.642 261.400 C 135.892 259.860,136.240 257.790,136.414 256.800 C 136.589 255.810,136.927 253.875,137.166 252.500 C 137.405 251.125,137.797 248.875,138.037 247.500 C 138.502 244.841,138.993 241.980,139.600 238.400 C 139.805 237.190,140.165 235.120,140.400 233.800 C 141.027 230.278,141.510 227.357,141.988 224.200 L 142.413 221.400 138.106 217.252 C 135.738 214.971,127.410 206.859,119.600 199.226 C 111.790 191.593,103.802 183.820,101.848 181.953 L 98.297 178.559 100.797 170.873 C 103.628 162.173,103.165 162.815,106.945 162.335 C 108.515 162.136,110.970 161.801,112.400 161.590 C 113.830 161.379,116.350 161.012,118.000 160.775 C 119.650 160.538,122.125 160.176,123.500 159.972 C 124.875 159.767,127.125 159.433,128.500 159.228 C 129.875 159.024,132.440 158.651,134.200 158.400 C 135.960 158.149,138.480 157.780,139.800 157.580 C 143.015 157.093,146.761 156.546,150.400 156.033 C 152.050 155.800,154.030 155.513,154.800 155.397 C 155.570 155.280,157.370 155.012,158.800 154.801 C 160.230 154.590,162.082 154.315,162.915 154.188 L 164.430 153.958 175.050 132.479 C 180.891 120.666,186.950 108.390,188.514 105.200 C 191.992 98.109,190.727 98.812,200.000 98.812 C 204.290 98.812,207.988 98.944,208.218 99.106 " stroke="none" fill="#543c73" fill-rule="evenodd"></path><path id="path2" d="M192.100 0.293 C 191.165 0.377,190.400 0.616,190.400 0.823 C 190.400 1.030,189.961 1.200,189.424 1.200 C 188.887 1.200,188.336 1.380,188.200 1.600 C 188.064 1.820,187.603 2.000,187.176 2.000 C 186.749 2.000,186.400 2.180,186.400 2.400 C 186.400 2.620,186.040 2.800,185.600 2.800 C 185.160 2.800,184.800 2.980,184.800 3.200 C 184.800 3.420,184.440 3.600,184.000 3.600 C 183.560 3.600,183.200 3.780,183.200 4.000 C 183.200 4.220,182.840 4.400,182.400 4.400 C 181.960 4.400,181.600 4.580,181.600 4.800 C 181.600 5.020,181.229 5.200,180.776 5.200 C 180.323 5.200,180.064 5.380,180.200 5.600 C 180.336 5.820,180.167 6.000,179.824 6.000 C 179.481 6.000,179.200 6.180,179.200 6.400 C 179.200 6.620,178.840 6.800,178.400 6.800 C 177.960 6.800,177.600 6.980,177.600 7.200 C 177.600 7.420,177.330 7.600,177.000 7.600 C 176.670 7.600,176.400 7.753,176.400 7.939 C 176.400 8.126,175.680 8.603,174.800 9.000 C 173.920 9.397,173.200 9.874,173.200 10.061 C 173.200 10.247,172.880 10.400,172.488 10.400 C 172.097 10.400,171.517 10.760,171.200 11.200 C 170.883 11.640,170.386 12.000,170.095 12.000 C 169.804 12.000,169.180 12.360,168.708 12.800 C 168.236 13.240,167.613 13.600,167.325 13.600 C 167.036 13.600,166.800 13.780,166.800 14.000 C 166.800 14.220,166.564 14.400,166.275 14.400 C 165.987 14.400,165.364 14.760,164.892 15.200 C 164.420 15.640,163.756 16.000,163.417 16.000 C 163.078 16.000,162.800 16.146,162.800 16.325 C 162.800 16.504,162.170 16.898,161.400 17.200 C 160.630 17.502,160.000 17.896,160.000 18.075 C 160.000 18.254,159.640 18.400,159.200 18.400 C 158.760 18.400,158.400 18.580,158.400 18.800 C 158.400 19.020,158.040 19.200,157.600 19.200 C 157.160 19.200,156.800 19.380,156.800 19.600 C 156.800 19.820,156.440 20.000,156.000 20.000 C 155.560 20.000,155.200 20.180,155.200 20.400 C 155.200 20.620,154.660 20.800,154.000 20.800 C 153.340 20.800,152.800 20.980,152.800 21.200 C 152.800 21.420,152.080 21.600,151.200 21.600 C 150.320 21.600,149.600 21.780,149.600 22.000 C 149.600 22.231,148.333 22.400,146.600 22.400 C 144.867 22.400,143.600 22.569,143.600 22.800 C 143.600 23.042,141.867 23.200,139.200 23.200 C 136.533 23.200,134.800 23.042,134.800 22.800 C 134.800 22.252,110.138 22.252,109.800 22.800 C 109.664 23.020,108.753 23.200,107.776 23.200 C 106.799 23.200,106.000 23.380,106.000 23.600 C 106.000 23.820,105.460 24.000,104.800 24.000 C 104.140 24.000,103.600 24.180,103.600 24.400 C 103.600 24.620,103.165 24.800,102.632 24.800 C 101.654 24.800,99.112 25.947,98.867 26.500 C 98.793 26.665,98.505 26.800,98.226 26.800 C 97.947 26.800,97.154 27.340,96.463 28.000 C 95.772 28.660,95.065 29.200,94.892 29.200 C 94.719 29.200,94.312 29.590,93.988 30.066 C 93.665 30.542,93.085 31.262,92.700 31.666 C 92.315 32.070,92.000 32.508,92.000 32.640 C 92.000 32.771,91.460 33.383,90.800 34.000 C 90.140 34.617,89.600 35.369,89.600 35.672 C 89.600 35.975,89.240 36.483,88.800 36.800 C 88.360 37.117,88.000 37.697,88.000 38.088 C 88.000 38.480,87.820 38.800,87.600 38.800 C 87.380 38.800,87.200 39.070,87.200 39.400 C 87.200 39.730,87.020 40.000,86.800 40.000 C 86.580 40.000,86.400 40.270,86.400 40.600 C 86.400 40.930,86.254 41.200,86.075 41.200 C 85.896 41.200,85.502 41.830,85.200 42.600 C 84.898 43.370,84.504 44.000,84.325 44.000 C 84.146 44.000,84.000 44.360,84.000 44.800 C 84.000 45.240,83.820 45.600,83.600 45.600 C 83.380 45.600,83.200 45.960,83.200 46.400 C 83.200 46.840,83.020 47.200,82.800 47.200 C 82.580 47.200,82.400 47.545,82.400 47.967 C 82.400 48.388,82.265 48.793,82.100 48.867 C 81.833 48.985,79.751 52.716,78.625 55.097 C 78.391 55.590,78.065 55.995,77.900 55.997 C 77.735 55.999,77.600 56.360,77.600 56.800 C 77.600 57.240,77.420 57.600,77.200 57.600 C 76.980 57.600,76.800 57.960,76.800 58.400 C 76.800 58.840,76.620 59.200,76.400 59.200 C 76.180 59.200,76.000 59.448,76.000 59.751 C 76.000 60.054,75.730 60.526,75.400 60.800 C 75.070 61.074,74.800 61.596,74.800 61.961 C 74.800 62.325,74.440 62.883,74.000 63.200 C 73.560 63.517,73.200 64.010,73.200 64.295 C 73.200 64.981,64.995 73.200,64.310 73.200 C 64.017 73.200,63.517 73.560,63.200 74.000 C 62.883 74.440,62.386 74.800,62.095 74.800 C 61.804 74.800,61.187 75.154,60.723 75.586 C 60.259 76.019,59.726 76.278,59.539 76.163 C 59.353 76.047,59.200 76.143,59.200 76.376 C 59.200 76.609,58.840 76.800,58.400 76.800 C 57.960 76.800,57.599 76.935,57.597 77.100 C 57.595 77.265,57.190 77.594,56.697 77.831 C 53.737 79.251,48.980 81.845,48.867 82.100 C 48.793 82.265,48.388 82.400,47.967 82.400 C 47.545 82.400,47.200 82.580,47.200 82.800 C 47.200 83.020,46.840 83.200,46.400 83.200 C 45.960 83.200,45.600 83.380,45.600 83.600 C 45.600 83.820,45.240 84.000,44.800 84.000 C 44.360 84.000,44.000 84.136,44.000 84.302 C 44.000 84.469,43.415 84.863,42.700 85.178 C 41.985 85.493,41.160 85.989,40.868 86.279 C 40.575 86.570,40.203 86.725,40.041 86.625 C 39.878 86.525,39.493 86.793,39.185 87.221 C 38.876 87.650,38.343 88.000,38.000 88.000 C 37.657 88.000,37.117 88.360,36.800 88.800 C 36.483 89.240,35.975 89.600,35.672 89.600 C 35.369 89.600,34.617 90.140,34.000 90.800 C 33.383 91.460,32.726 92.004,32.540 92.009 C 32.134 92.020,29.200 94.616,29.200 94.964 C 29.200 95.098,28.660 95.772,28.000 96.463 C 27.340 97.154,26.800 97.962,26.800 98.259 C 26.800 98.557,26.655 98.800,26.477 98.800 C 26.028 98.800,24.800 101.682,24.800 102.734 C 24.800 103.210,24.620 103.600,24.400 103.600 C 24.180 103.600,24.000 104.140,24.000 104.800 C 24.000 105.460,23.820 106.000,23.600 106.000 C 23.380 106.000,23.200 106.799,23.200 107.776 C 23.200 108.753,23.020 109.664,22.800 109.800 C 22.254 110.137,22.254 135.063,22.800 135.400 C 23.322 135.723,23.322 143.077,22.800 143.400 C 22.580 143.536,22.400 144.987,22.400 146.624 C 22.400 148.341,22.231 149.600,22.000 149.600 C 21.780 149.600,21.600 150.320,21.600 151.200 C 21.600 152.080,21.420 152.800,21.200 152.800 C 20.980 152.800,20.800 153.340,20.800 154.000 C 20.800 154.660,20.620 155.200,20.400 155.200 C 20.180 155.200,20.000 155.434,20.000 155.720 C 20.000 156.456,19.059 158.393,18.700 158.397 C 18.535 158.399,18.400 158.760,18.400 159.200 C 18.400 159.640,18.254 160.000,18.075 160.000 C 17.896 160.000,17.502 160.630,17.200 161.400 C 16.898 162.170,16.504 162.800,16.325 162.800 C 16.146 162.800,16.000 163.078,16.000 163.417 C 16.000 163.756,15.640 164.420,15.200 164.892 C 14.760 165.364,14.400 165.987,14.400 166.275 C 14.400 166.564,14.220 166.800,14.000 166.800 C 13.780 166.800,13.600 167.036,13.600 167.325 C 13.600 167.613,13.240 168.236,12.800 168.708 C 12.360 169.180,12.000 169.762,12.000 170.000 C 12.000 170.238,11.640 170.820,11.200 171.292 C 10.760 171.764,10.400 172.387,10.400 172.675 C 10.400 172.964,10.255 173.200,10.077 173.200 C 9.899 173.200,9.453 173.882,9.085 174.716 C 8.717 175.549,8.053 176.622,7.608 177.099 C 7.164 177.576,6.800 178.204,6.800 178.495 C 6.800 178.786,6.440 179.283,6.000 179.600 C 5.560 179.917,5.200 180.497,5.200 180.888 C 5.200 181.280,5.020 181.600,4.800 181.600 C 4.580 181.600,4.400 181.960,4.400 182.400 C 4.400 182.840,4.220 183.200,4.000 183.200 C 3.780 183.200,3.600 183.560,3.600 184.000 C 3.600 184.440,3.420 184.800,3.200 184.800 C 2.980 184.800,2.800 185.160,2.800 185.600 C 2.800 186.040,2.620 186.400,2.400 186.400 C 2.180 186.400,2.000 186.749,2.000 187.176 C 2.000 187.603,1.820 188.064,1.600 188.200 C 1.380 188.336,1.200 188.872,1.200 189.390 C 1.200 189.909,0.975 190.408,0.700 190.500 C -0.024 190.742,-0.024 209.259,0.700 209.500 C 0.975 209.592,1.200 210.091,1.200 210.610 C 1.200 211.128,1.380 211.664,1.600 211.800 C 1.820 211.936,2.000 212.397,2.000 212.824 C 2.000 213.251,2.180 213.600,2.400 213.600 C 2.620 213.600,2.800 213.960,2.800 214.400 C 2.800 214.840,2.980 215.200,3.200 215.200 C 3.420 215.200,3.600 215.560,3.600 216.000 C 3.600 216.440,3.780 216.800,4.000 216.800 C 4.220 216.800,4.400 217.160,4.400 217.600 C 4.400 218.040,4.580 218.400,4.800 218.400 C 5.020 218.400,5.200 218.720,5.200 219.112 C 5.200 219.503,5.560 220.083,6.000 220.400 C 6.440 220.717,6.800 221.297,6.800 221.688 C 6.800 222.080,6.980 222.400,7.200 222.400 C 7.420 222.400,7.600 222.670,7.600 223.000 C 7.600 223.330,7.767 223.600,7.971 223.600 C 8.175 223.600,8.660 224.320,9.048 225.200 C 9.436 226.080,9.899 226.800,10.077 226.800 C 10.255 226.800,10.400 227.036,10.400 227.325 C 10.400 227.613,10.760 228.236,11.200 228.708 C 11.640 229.180,12.000 229.762,12.000 230.000 C 12.000 230.238,12.360 230.820,12.800 231.292 C 13.240 231.764,13.600 232.387,13.600 232.675 C 13.600 232.964,13.780 233.200,14.000 233.200 C 14.220 233.200,14.400 233.436,14.400 233.725 C 14.400 234.013,14.760 234.636,15.200 235.108 C 15.640 235.580,16.000 236.244,16.000 236.583 C 16.000 236.922,16.180 237.200,16.400 237.200 C 16.620 237.200,16.804 237.425,16.809 237.700 C 16.814 237.975,17.170 238.650,17.600 239.200 C 18.030 239.750,18.386 240.515,18.391 240.900 C 18.396 241.285,18.580 241.600,18.800 241.600 C 19.020 241.600,19.200 241.960,19.200 242.400 C 19.200 242.840,19.380 243.200,19.600 243.200 C 19.820 243.200,20.000 243.560,20.000 244.000 C 20.000 244.440,20.180 244.800,20.400 244.800 C 20.620 244.800,20.800 245.340,20.800 246.000 C 20.800 246.660,20.980 247.200,21.200 247.200 C 21.420 247.200,21.600 247.920,21.600 248.800 C 21.600 249.680,21.780 250.400,22.000 250.400 C 22.231 250.400,22.400 251.667,22.400 253.400 C 22.400 255.133,22.569 256.400,22.800 256.400 C 23.331 256.400,23.331 264.272,22.800 264.600 C 22.254 264.937,22.254 289.863,22.800 290.200 C 23.020 290.336,23.200 291.247,23.200 292.224 C 23.200 293.201,23.380 294.000,23.600 294.000 C 23.820 294.000,24.000 294.540,24.000 295.200 C 24.000 295.860,24.180 296.400,24.400 296.400 C 24.620 296.400,24.800 296.790,24.800 297.266 C 24.800 298.318,26.028 301.200,26.477 301.200 C 26.655 301.200,26.800 301.443,26.800 301.741 C 26.800 302.038,27.340 302.846,28.000 303.537 C 28.660 304.228,29.200 304.902,29.200 305.036 C 29.200 305.365,32.123 307.979,32.504 307.991 C 32.671 307.996,33.372 308.540,34.063 309.200 C 34.754 309.860,35.522 310.400,35.771 310.400 C 36.020 310.400,36.483 310.760,36.800 311.200 C 37.117 311.640,37.657 312.000,38.000 312.000 C 38.343 312.000,38.876 312.350,39.185 312.779 C 39.493 313.207,39.878 313.475,40.041 313.375 C 40.203 313.275,40.575 313.430,40.868 313.721 C 41.160 314.011,41.985 314.507,42.700 314.822 C 43.415 315.137,44.000 315.531,44.000 315.698 C 44.000 315.864,44.360 316.000,44.800 316.000 C 45.240 316.000,45.600 316.180,45.600 316.400 C 45.600 316.620,45.960 316.800,46.400 316.800 C 46.840 316.800,47.200 316.980,47.200 317.200 C 47.200 317.420,47.560 317.600,48.000 317.600 C 48.440 317.600,48.800 317.780,48.800 318.000 C 48.800 318.220,49.145 318.400,49.567 318.400 C 49.988 318.400,50.393 318.535,50.467 318.700 C 50.585 318.967,54.316 321.049,56.697 322.175 C 57.190 322.409,57.595 322.735,57.597 322.900 C 57.599 323.065,57.960 323.200,58.400 323.200 C 58.840 323.200,59.200 323.391,59.200 323.624 C 59.200 323.857,59.353 323.953,59.539 323.837 C 59.726 323.722,60.259 323.981,60.723 324.414 C 61.187 324.846,61.804 325.200,62.095 325.200 C 62.386 325.200,62.883 325.560,63.200 326.000 C 63.517 326.440,64.019 326.800,64.314 326.800 C 64.610 326.800,65.695 327.664,66.726 328.721 C 67.757 329.777,68.915 330.761,69.300 330.908 C 69.685 331.055,70.000 331.375,70.000 331.619 C 70.000 331.863,70.720 332.754,71.600 333.600 C 72.480 334.446,73.200 335.382,73.200 335.680 C 73.200 335.979,73.560 336.483,74.000 336.800 C 74.440 337.117,74.800 337.675,74.800 338.039 C 74.800 338.404,75.070 338.926,75.400 339.200 C 75.730 339.474,76.000 339.946,76.000 340.249 C 76.000 340.552,76.180 340.800,76.400 340.800 C 76.620 340.800,76.800 341.145,76.800 341.567 C 76.800 341.988,76.935 342.393,77.100 342.467 C 77.368 342.586,78.294 344.245,80.970 349.400 C 81.426 350.280,81.935 351.060,82.100 351.133 C 82.265 351.207,82.400 351.612,82.400 352.033 C 82.400 352.455,82.580 352.800,82.800 352.800 C 83.020 352.800,83.200 353.160,83.200 353.600 C 83.200 354.040,83.380 354.400,83.600 354.400 C 83.820 354.400,84.000 354.760,84.000 355.200 C 84.000 355.640,84.146 356.000,84.325 356.000 C 84.504 356.000,84.898 356.630,85.200 357.400 C 85.502 358.170,85.896 358.800,86.075 358.800 C 86.254 358.800,86.400 359.070,86.400 359.400 C 86.400 359.730,86.580 360.000,86.800 360.000 C 87.020 360.000,87.200 360.270,87.200 360.600 C 87.200 360.930,87.380 361.200,87.600 361.200 C 87.820 361.200,88.000 361.520,88.000 361.912 C 88.000 362.303,88.360 362.883,88.800 363.200 C 89.240 363.517,89.600 363.980,89.600 364.229 C 89.600 364.478,90.140 365.246,90.800 365.937 C 91.460 366.628,92.000 367.284,92.000 367.396 C 92.000 367.508,92.342 367.978,92.760 368.440 C 93.178 368.902,93.673 369.451,93.860 369.661 C 94.916 370.845,97.838 373.200,98.251 373.200 C 98.516 373.200,98.793 373.335,98.867 373.500 C 99.112 374.053,101.654 375.200,102.632 375.200 C 103.165 375.200,103.600 375.380,103.600 375.600 C 103.600 375.820,104.140 376.000,104.800 376.000 C 105.460 376.000,106.000 376.180,106.000 376.400 C 106.000 376.620,106.799 376.800,107.776 376.800 C 108.753 376.800,109.664 376.980,109.800 377.200 C 110.138 377.748,134.800 377.748,134.800 377.200 C 134.800 376.958,136.533 376.800,139.200 376.800 C 141.867 376.800,143.600 376.958,143.600 377.200 C 143.600 377.431,144.867 377.600,146.600 377.600 C 148.333 377.600,149.600 377.769,149.600 378.000 C 149.600 378.220,150.320 378.400,151.200 378.400 C 152.080 378.400,152.800 378.580,152.800 378.800 C 152.800 379.020,153.340 379.200,154.000 379.200 C 154.660 379.200,155.200 379.380,155.200 379.600 C 155.200 379.820,155.560 380.000,156.000 380.000 C 156.440 380.000,156.800 380.180,156.800 380.400 C 156.800 380.620,157.149 380.800,157.576 380.800 C 158.003 380.800,158.464 380.980,158.600 381.200 C 158.736 381.420,159.197 381.600,159.624 381.600 C 160.051 381.600,160.400 381.758,160.400 381.951 C 160.400 382.145,160.940 382.527,161.600 382.800 C 162.260 383.073,162.800 383.455,162.800 383.649 C 162.800 383.842,163.078 384.000,163.417 384.000 C 163.756 384.000,164.420 384.360,164.892 384.800 C 165.364 385.240,165.987 385.600,166.275 385.600 C 166.564 385.600,166.800 385.780,166.800 386.000 C 166.800 386.220,167.036 386.400,167.325 386.400 C 167.613 386.400,168.236 386.760,168.708 387.200 C 169.180 387.640,169.762 388.000,170.000 388.000 C 170.238 388.000,170.820 388.360,171.292 388.800 C 171.764 389.240,172.387 389.600,172.675 389.600 C 172.964 389.600,173.200 389.745,173.200 389.923 C 173.200 390.101,173.920 390.564,174.800 390.952 C 175.680 391.340,176.400 391.825,176.400 392.029 C 176.400 392.233,176.670 392.400,177.000 392.400 C 177.330 392.400,177.600 392.580,177.600 392.800 C 177.600 393.020,177.920 393.200,178.312 393.200 C 178.703 393.200,179.283 393.560,179.600 394.000 C 179.917 394.440,180.371 394.800,180.609 394.800 C 181.275 394.800,183.193 395.763,183.197 396.100 C 183.199 396.265,183.560 396.400,184.000 396.400 C 184.440 396.400,184.800 396.580,184.800 396.800 C 184.800 397.020,185.160 397.200,185.600 397.200 C 186.040 397.200,186.400 397.380,186.400 397.600 C 186.400 397.820,186.749 398.000,187.176 398.000 C 187.603 398.000,188.064 398.180,188.200 398.400 C 188.336 398.620,188.872 398.800,189.390 398.800 C 189.909 398.800,190.398 398.993,190.476 399.228 C 190.561 399.482,192.531 399.751,195.309 399.888 L 200.000 400.119 200.000 371.706 L 200.000 343.294 193.500 343.072 C 187.302 342.861,184.058 342.551,177.800 341.574 C 172.982 340.821,171.059 340.470,169.200 340.006 C 168.210 339.759,166.680 339.400,165.800 339.208 C 164.920 339.017,163.480 338.657,162.600 338.408 C 161.720 338.159,160.460 337.805,159.800 337.621 C 151.283 335.250,137.881 329.636,130.300 325.265 C 129.475 324.789,128.171 324.044,127.402 323.608 C 114.367 316.223,98.978 302.987,88.844 290.446 C 85.804 286.684,80.400 279.379,80.400 279.032 C 80.400 278.935,79.692 277.791,78.826 276.488 C 77.961 275.185,76.881 273.462,76.426 272.659 C 75.972 271.857,75.210 270.525,74.733 269.700 C 72.371 265.612,66.800 253.883,66.800 252.997 C 66.800 252.845,66.545 252.154,66.233 251.460 C 65.921 250.767,65.279 249.030,64.807 247.600 C 64.334 246.170,63.800 244.640,63.619 244.200 C 63.439 243.760,63.070 242.590,62.799 241.600 C 62.529 240.610,62.169 239.350,62.000 238.800 C 61.543 237.313,60.902 234.831,60.450 232.800 C 60.230 231.810,59.930 230.550,59.784 230.000 C 59.271 228.067,58.263 221.663,57.517 215.600 C 56.831 210.029,56.831 189.971,57.517 184.400 C 58.807 173.913,59.936 168.223,62.396 159.800 C 62.588 159.140,62.863 158.150,63.006 157.600 C 63.150 157.050,63.424 156.240,63.617 155.800 C 63.809 155.360,64.434 153.560,65.006 151.800 C 66.960 145.785,73.312 132.013,75.640 128.744 C 76.058 128.157,76.400 127.565,76.400 127.429 C 76.400 127.293,77.300 125.822,78.400 124.161 C 79.500 122.500,80.400 121.044,80.400 120.925 C 80.400 119.298,93.415 103.771,100.800 96.587 C 105.947 91.580,119.849 80.400,120.928 80.400 C 121.047 80.400,122.209 79.692,123.512 78.826 C 124.815 77.961,126.538 76.881,127.341 76.426 C 128.143 75.972,129.475 75.210,130.300 74.733 C 136.499 71.151,146.106 66.879,153.200 64.551 C 154.190 64.226,155.360 63.804,155.800 63.613 C 156.240 63.423,157.050 63.150,157.600 63.006 C 158.150 62.863,159.185 62.578,159.900 62.373 C 160.615 62.168,161.875 61.806,162.700 61.570 C 163.525 61.333,164.920 60.983,165.800 60.792 C 166.680 60.600,168.210 60.241,169.200 59.994 C 170.986 59.548,172.406 59.286,177.800 58.408 C 183.230 57.525,186.668 57.201,193.300 56.951 L 200.000 56.698 200.000 28.349 L 200.000 0.000 196.900 0.070 C 195.195 0.108,193.035 0.209,192.100 0.293 M329.600 67.864 C 329.600 68.082,330.095 68.697,330.700 69.230 L 331.800 70.200 330.800 69.000 C 330.250 68.340,329.755 67.725,329.700 67.633 C 329.645 67.542,329.600 67.645,329.600 67.864 M338.000 75.162 C 338.000 75.494,339.641 76.092,339.884 75.849 C 339.950 75.784,339.553 75.525,339.002 75.274 C 338.451 75.023,338.000 74.972,338.000 75.162 M372.400 97.505 C 372.400 97.963,373.487 99.200,373.891 99.200 C 374.019 99.200,373.783 98.795,373.366 98.300 C 372.950 97.805,372.562 97.325,372.504 97.233 C 372.447 97.142,372.400 97.264,372.400 97.505 M192.115 99.700 C 191.904 99.975,189.740 104.250,187.304 109.200 C 184.869 114.150,178.820 126.411,173.862 136.447 L 164.848 154.694 162.724 154.972 C 160.211 155.301,156.897 155.772,152.900 156.368 C 151.305 156.606,148.695 156.986,147.100 157.213 C 145.505 157.441,143.120 157.788,141.800 157.986 C 137.847 158.578,133.764 159.177,130.900 159.584 C 128.089 159.983,124.041 160.577,119.600 161.242 C 116.915 161.644,114.236 162.016,108.435 162.791 C 103.792 163.412,103.900 163.310,102.207 168.690 C 101.392 171.281,100.358 174.469,99.910 175.776 L 99.094 178.152 107.856 186.776 C 112.676 191.519,122.616 201.247,129.946 208.394 L 143.274 221.388 142.996 222.794 C 142.843 223.567,142.571 225.100,142.391 226.200 C 141.799 229.816,141.199 233.364,140.800 235.600 C 140.584 236.810,140.224 238.880,140.000 240.200 C 139.776 241.520,139.416 243.590,139.200 244.800 C 138.827 246.894,138.335 249.788,137.605 254.200 C 137.423 255.300,137.061 257.370,136.800 258.800 C 136.539 260.230,136.179 262.300,136.000 263.400 C 135.821 264.500,135.484 266.480,135.251 267.800 C 135.019 269.120,134.654 271.280,134.441 272.600 C 134.228 273.920,133.780 276.517,133.447 278.371 C 132.699 282.525,131.970 281.696,143.400 289.695 L 145.536 291.189 149.468 289.151 C 151.631 288.030,154.840 286.346,156.600 285.407 C 158.360 284.469,161.780 282.665,164.200 281.398 C 173.740 276.404,176.387 275.018,181.200 272.492 C 183.950 271.048,188.275 268.772,190.811 267.434 C 193.347 266.095,196.452 264.467,197.711 263.816 L 200.000 262.631 200.000 180.916 L 200.000 99.200 196.249 99.200 C 193.719 99.200,192.373 99.363,192.115 99.700 M377.067 133.467 C 376.641 133.892,376.758 135.673,377.194 135.404 C 377.411 135.270,377.551 134.719,377.507 134.180 C 377.416 133.079,377.430 133.103,377.067 133.467 M376.800 265.353 C 376.800 266.655,377.407 267.030,377.509 265.791 C 377.552 265.268,377.411 264.730,377.194 264.596 C 376.975 264.461,376.800 264.798,376.800 265.353 M373.029 301.429 C 372.683 301.774,372.400 302.254,372.400 302.495 C 372.400 302.736,372.447 302.858,372.504 302.767 C 372.562 302.675,372.950 302.195,373.366 301.700 C 374.228 300.676,373.980 300.477,373.029 301.429 M330.401 330.998 C 329.886 331.548,329.539 332.064,329.632 332.146 C 329.724 332.228,330.219 331.778,330.730 331.147 C 331.876 329.735,331.674 329.644,330.401 330.998 M305.988 369.677 L 305.088 371.000 306.184 369.874 C 306.788 369.254,307.192 368.659,307.084 368.551 C 306.976 368.443,306.482 368.949,305.988 369.677 M265.800 377.200 C 265.936 377.420,266.317 377.600,266.647 377.600 C 266.977 377.600,267.136 377.420,267.000 377.200 C 266.864 376.980,266.483 376.800,266.153 376.800 C 265.823 376.800,265.664 376.980,265.800 377.200 M234.224 384.933 C 233.694 385.321,233.650 385.467,234.065 385.467 C 234.378 385.467,234.859 385.227,235.133 384.933 C 235.407 384.640,235.479 384.400,235.292 384.400 C 235.106 384.400,234.625 384.640,234.224 384.933 " stroke="none" fill="#fbdb44" fill-rule="evenodd"></path><path id="path3" d="M187.400 57.175 C 186.520 57.319,188.770 57.369,192.400 57.287 C 196.030 57.204,199.180 57.075,199.400 57.000 C 200.137 56.748,189.021 56.910,187.400 57.175 M209.091 57.089 C 209.801 57.177,211.061 57.179,211.891 57.092 C 212.721 57.005,212.140 56.933,210.600 56.931 C 209.060 56.929,208.381 57.000,209.091 57.089 M180.400 58.002 C 179.800 58.195,180.440 58.237,182.000 58.106 C 183.430 57.986,184.675 57.823,184.767 57.744 C 185.089 57.465,181.388 57.684,180.400 58.002 M218.100 57.876 C 218.485 57.976,219.115 57.976,219.500 57.876 C 219.885 57.775,219.570 57.693,218.800 57.693 C 218.030 57.693,217.715 57.775,218.100 57.876 M175.400 58.810 C 174.866 59.047,175.198 59.086,176.400 58.927 C 177.390 58.796,178.275 58.624,178.367 58.544 C 178.714 58.243,176.164 58.472,175.400 58.810 M223.633 58.544 C 223.725 58.623,224.340 58.808,225.000 58.956 C 225.876 59.152,226.038 59.115,225.600 58.818 C 225.060 58.453,223.232 58.198,223.633 58.544 M170.800 59.621 C 170.370 59.914,170.654 59.954,171.800 59.762 C 173.784 59.430,174.104 59.198,172.567 59.206 C 171.925 59.209,171.130 59.396,170.800 59.621 M167.600 60.418 C 167.162 60.715,167.324 60.752,168.200 60.556 C 169.671 60.227,169.990 59.998,168.967 60.006 C 168.545 60.009,167.930 60.195,167.600 60.418 M164.000 61.218 C 163.562 61.515,163.724 61.552,164.600 61.356 C 166.071 61.027,166.390 60.798,165.367 60.806 C 164.945 60.809,164.330 60.995,164.000 61.218 M136.647 71.385 C 133.813 72.793,131.299 74.141,131.059 74.381 C 130.820 74.620,132.959 73.644,135.812 72.212 C 138.665 70.780,141.214 69.606,141.476 69.604 C 141.738 69.602,142.064 69.420,142.200 69.200 C 142.642 68.485,141.877 68.785,136.647 71.385 M128.800 75.636 C 128.136 76.179,128.069 76.315,128.600 76.040 C 129.905 75.366,130.628 74.812,130.200 74.815 C 129.980 74.817,129.350 75.186,128.800 75.636 M126.000 77.233 L 125.000 78.048 126.300 77.414 C 127.015 77.065,127.600 76.694,127.600 76.590 C 127.600 76.192,126.963 76.448,126.000 77.233 M119.000 81.632 C 116.451 83.559,116.403 83.828,118.900 82.193 C 120.165 81.364,121.200 80.622,121.200 80.543 C 121.200 80.163,120.457 80.530,119.000 81.632 M111.752 87.100 C 106.589 91.184,104.400 93.072,104.400 93.439 C 104.400 93.583,105.165 93.002,106.100 92.147 C 107.035 91.292,109.307 89.424,111.148 87.996 C 115.236 84.826,116.666 83.629,116.388 83.613 C 116.271 83.606,114.185 85.175,111.752 87.100 M98.786 98.615 C 96.044 101.374,93.716 103.759,93.614 103.915 C 93.511 104.072,95.806 101.863,98.714 99.006 C 101.621 96.149,104.000 93.764,104.000 93.706 C 104.000 93.410,103.396 93.979,98.786 98.615 M301.600 99.000 C 302.795 100.210,303.863 101.200,303.973 101.200 C 304.083 101.200,303.195 100.210,302.000 99.000 C 300.805 97.790,299.737 96.800,299.627 96.800 C 299.517 96.800,300.405 97.790,301.600 99.000 M89.507 108.714 C 86.160 112.820,82.992 117.040,83.886 116.200 C 84.121 115.980,85.796 113.910,87.609 111.600 C 89.422 109.290,91.548 106.725,92.334 105.900 C 93.119 105.075,93.591 104.406,93.381 104.414 C 93.172 104.422,91.428 106.357,89.507 108.714 M182.282 118.621 C 181.247 120.705,180.409 122.543,180.420 122.705 C 180.432 122.867,181.343 121.226,182.445 119.058 C 183.548 116.890,184.386 115.052,184.307 114.974 C 184.229 114.896,183.318 116.537,182.282 118.621 M81.786 118.819 C 80.971 119.929,80.389 120.922,80.491 121.025 C 80.594 121.128,81.338 120.219,82.143 119.006 C 83.977 116.245,83.759 116.131,81.786 118.819 M77.014 126.235 C 76.641 126.804,76.405 127.338,76.489 127.422 C 76.573 127.507,76.958 127.041,77.344 126.388 C 78.206 124.928,77.948 124.809,77.014 126.235 M176.568 130.300 C 175.519 132.445,174.592 134.335,174.507 134.500 C 174.422 134.665,174.436 134.800,174.539 134.800 C 174.641 134.800,175.583 133.045,176.632 130.900 C 177.681 128.755,178.608 126.865,178.693 126.700 C 178.778 126.535,178.764 126.400,178.661 126.400 C 178.559 126.400,177.617 128.155,176.568 130.300 M74.699 130.300 C 73.103 133.042,68.795 141.803,68.812 142.271 C 68.819 142.452,70.128 139.988,71.721 136.795 C 73.314 133.603,75.033 130.318,75.541 129.495 C 76.049 128.673,76.369 128.000,76.252 128.000 C 76.134 128.000,75.436 129.035,74.699 130.300 M167.482 148.621 C 166.447 150.705,165.609 152.543,165.620 152.705 C 165.632 152.867,166.543 151.226,167.645 149.058 C 168.748 146.890,169.586 145.052,169.507 144.974 C 169.429 144.896,168.518 146.537,167.482 148.621 M65.800 149.200 C 65.650 149.673,65.617 150.150,65.727 150.260 C 65.837 150.370,66.050 150.073,66.200 149.600 C 66.350 149.127,66.383 148.650,66.273 148.540 C 66.163 148.430,65.950 148.727,65.800 149.200 M164.820 153.776 C 164.557 154.093,163.950 154.428,163.471 154.522 C 162.691 154.673,162.704 154.697,163.604 154.746 C 164.217 154.779,164.802 154.489,165.107 154.000 C 165.687 153.071,165.516 152.938,164.820 153.776 M158.800 155.200 L 157.400 155.495 158.800 155.519 C 159.570 155.533,160.560 155.389,161.000 155.200 L 161.800 154.856 161.000 154.881 C 160.560 154.894,159.570 155.038,158.800 155.200 M240.600 155.200 C 241.040 155.389,241.670 155.544,242.000 155.544 C 242.378 155.544,242.304 155.417,241.800 155.200 C 241.360 155.011,240.730 154.856,240.400 154.856 C 240.022 154.856,240.096 154.983,240.600 155.200 M153.000 156.000 L 151.400 156.286 153.000 156.315 C 153.880 156.331,154.960 156.189,155.400 156.000 L 156.200 155.656 155.400 155.685 C 154.960 155.701,153.880 155.842,153.000 156.000 M246.200 156.000 C 246.640 156.189,247.270 156.344,247.600 156.344 C 247.978 156.344,247.904 156.217,247.400 156.000 C 246.960 155.811,246.330 155.656,246.000 155.656 C 245.622 155.656,245.696 155.783,246.200 156.000 M147.600 156.800 L 146.200 157.095 147.600 157.107 C 148.370 157.115,149.450 156.976,150.000 156.800 L 151.000 156.480 150.000 156.493 C 149.450 156.500,148.370 156.638,147.600 156.800 M250.833 156.544 C 250.925 156.623,251.540 156.808,252.200 156.956 C 253.076 157.152,253.238 157.115,252.800 156.818 C 252.260 156.453,250.432 156.198,250.833 156.544 M142.000 157.600 L 140.600 157.895 142.000 157.907 C 142.770 157.915,143.850 157.776,144.400 157.600 L 145.400 157.280 144.400 157.293 C 143.850 157.300,142.770 157.438,142.000 157.600 M136.400 158.400 L 134.600 158.680 136.400 158.712 C 137.390 158.729,138.560 158.589,139.000 158.400 L 139.800 158.056 139.000 158.088 C 138.560 158.106,137.390 158.246,136.400 158.400 M131.200 159.200 L 129.400 159.480 131.000 159.500 C 131.880 159.511,133.050 159.376,133.600 159.200 C 134.863 158.795,133.802 158.795,131.200 159.200 M125.600 160.000 L 123.800 160.280 125.400 160.300 C 126.280 160.311,127.450 160.176,128.000 160.000 C 129.263 159.595,128.202 159.595,125.600 160.000 M273.400 159.981 C 274.168 160.329,276.310 160.556,275.967 160.253 C 275.875 160.172,275.080 159.996,274.200 159.862 C 273.085 159.693,272.842 159.729,273.400 159.981 M120.000 160.800 L 118.200 161.080 119.800 161.093 C 120.680 161.100,121.940 160.968,122.600 160.800 C 124.200 160.393,122.619 160.393,120.000 160.800 M280.100 161.076 C 280.485 161.176,281.115 161.176,281.500 161.076 C 281.885 160.975,281.570 160.893,280.800 160.893 C 280.030 160.893,279.715 160.975,280.100 161.076 M114.600 161.600 L 112.600 161.874 114.400 161.897 C 115.390 161.910,116.650 161.776,117.200 161.600 C 118.444 161.201,117.506 161.201,114.600 161.600 M285.905 161.883 C 286.402 161.979,287.122 161.975,287.505 161.875 C 287.887 161.775,287.480 161.696,286.600 161.701 C 285.720 161.705,285.407 161.787,285.905 161.883 M107.900 162.682 C 108.395 162.778,109.205 162.778,109.700 162.682 C 110.195 162.587,109.790 162.509,108.800 162.509 C 107.810 162.509,107.405 162.587,107.900 162.682 M291.300 162.676 C 291.685 162.776,292.315 162.776,292.700 162.676 C 293.085 162.575,292.770 162.493,292.000 162.493 C 291.230 162.493,290.915 162.575,291.300 162.676 M61.049 164.215 C 60.912 164.573,60.815 165.166,60.834 165.533 C 60.853 165.900,61.027 165.669,61.221 165.020 C 61.598 163.758,61.465 163.133,61.049 164.215 M60.249 167.415 C 60.112 167.773,60.016 168.456,60.036 168.933 C 60.062 169.547,60.185 169.408,60.459 168.456 C 60.857 167.072,60.694 166.258,60.249 167.415 M59.449 171.015 C 59.312 171.373,59.218 172.146,59.240 172.733 C 59.273 173.591,59.352 173.495,59.646 172.240 C 60.022 170.639,59.895 169.853,59.449 171.015 M100.200 173.600 C 100.050 174.073,100.017 174.550,100.127 174.660 C 100.237 174.770,100.450 174.473,100.600 174.000 C 100.750 173.527,100.783 173.050,100.673 172.940 C 100.563 172.830,100.350 173.127,100.200 173.600 M58.649 175.415 C 58.512 175.773,58.420 176.636,58.444 177.333 C 58.482 178.437,58.533 178.371,58.836 176.825 C 59.193 175.005,59.094 174.257,58.649 175.415 M99.400 176.000 C 99.250 176.473,99.217 176.950,99.327 177.060 C 99.437 177.170,99.650 176.873,99.800 176.400 C 99.950 175.927,99.983 175.450,99.873 175.340 C 99.763 175.230,99.550 175.527,99.400 176.000 M99.200 178.471 C 99.200 178.770,115.759 195.174,115.910 195.023 C 115.980 194.953,112.324 191.229,107.786 186.748 C 103.248 182.267,99.459 178.525,99.367 178.433 C 99.275 178.342,99.200 178.358,99.200 178.471 M57.853 180.836 C 57.714 181.531,57.623 182.753,57.651 183.550 C 57.685 184.530,57.810 184.163,58.035 182.418 C 58.389 179.683,58.277 178.713,57.853 180.836 M342.093 181.200 C 342.093 181.970,342.175 182.285,342.276 181.900 C 342.376 181.515,342.376 180.885,342.276 180.500 C 342.175 180.115,342.093 180.430,342.093 181.200 M288.795 190.300 L 283.000 196.200 288.900 190.405 C 294.381 185.022,294.981 184.400,294.695 184.400 C 294.637 184.400,291.982 187.055,288.795 190.300 M57.059 188.100 C 56.727 190.864,56.783 210.091,57.130 212.400 C 57.278 213.390,57.400 207.855,57.400 200.100 C 57.400 192.345,57.380 186.000,57.356 186.000 C 57.331 186.000,57.198 186.945,57.059 188.100 M342.931 189.400 C 342.933 190.940,343.005 191.521,343.092 190.691 C 343.179 189.861,343.177 188.601,343.089 187.891 C 343.000 187.181,342.929 187.860,342.931 189.400 M116.400 195.314 C 116.400 195.624,130.328 209.353,130.824 209.531 C 131.024 209.604,127.937 206.454,123.962 202.531 C 119.988 198.609,116.661 195.325,116.568 195.233 C 116.476 195.142,116.400 195.178,116.400 195.314 M269.191 209.500 L 265.800 213.000 269.300 209.609 C 272.551 206.459,272.982 206.000,272.691 206.000 C 272.631 206.000,271.056 207.575,269.191 209.500 M342.931 210.600 C 342.933 212.140,343.005 212.721,343.092 211.891 C 343.179 211.061,343.177 209.801,343.089 209.091 C 343.000 208.381,342.929 209.060,342.931 210.600 M137.497 216.100 L 142.860 221.400 142.647 223.000 C 142.499 224.121,142.541 224.360,142.790 223.800 C 143.588 221.996,143.206 221.395,137.895 216.094 C 134.977 213.182,132.487 210.800,132.361 210.800 C 132.236 210.800,134.547 213.185,137.497 216.100 M57.640 216.833 C 57.662 217.805,57.825 219.050,58.002 219.600 C 58.195 220.200,58.237 219.560,58.106 218.000 C 57.851 214.962,57.582 214.289,57.640 216.833 M342.093 218.800 C 342.093 219.570,342.175 219.885,342.276 219.500 C 342.376 219.115,342.376 218.485,342.276 218.100 C 342.175 217.715,342.093 218.030,342.093 218.800 M258.034 220.165 C 257.306 220.916,256.806 221.771,256.924 222.065 C 257.090 222.483,257.144 222.473,257.168 222.019 C 257.186 221.700,257.775 220.845,258.478 220.119 C 259.182 219.394,259.667 218.800,259.557 218.800 C 259.447 218.800,258.761 219.414,258.034 220.165 M58.406 222.833 C 58.409 223.585,58.592 224.470,58.812 224.800 C 59.091 225.219,59.133 224.858,58.950 223.600 C 58.625 221.359,58.398 221.040,58.406 222.833 M142.059 226.200 C 142.020 226.860,141.896 227.850,141.783 228.400 L 141.577 229.400 142.008 228.414 C 142.244 227.872,142.368 226.882,142.283 226.214 L 142.128 225.000 142.059 226.200 M59.206 227.433 C 59.209 228.075,59.396 228.870,59.621 229.200 C 59.914 229.630,59.954 229.346,59.762 228.200 C 59.430 226.216,59.198 225.896,59.206 227.433 M141.264 230.650 C 141.229 231.118,141.105 232.107,140.989 232.850 C 140.796 234.086,140.815 234.117,141.208 233.214 C 141.445 232.672,141.568 231.682,141.483 231.014 C 141.391 230.297,141.302 230.148,141.264 230.650 M60.068 231.000 C 60.062 231.440,60.211 232.160,60.400 232.600 C 60.838 233.619,60.838 232.568,60.400 231.200 C 60.143 230.396,60.077 230.357,60.068 231.000 M258.456 230.800 C 258.456 231.130,258.611 231.760,258.800 232.200 C 259.017 232.704,259.144 232.778,259.144 232.400 C 259.144 232.070,258.989 231.440,258.800 231.000 C 258.583 230.496,258.456 230.422,258.456 230.800 M60.806 234.633 C 60.809 235.055,60.995 235.670,61.218 236.000 C 61.515 236.438,61.552 236.276,61.356 235.400 C 61.027 233.929,60.798 233.610,60.806 234.633 M140.454 235.600 C 140.419 236.150,140.296 237.050,140.183 237.600 L 139.977 238.600 140.407 237.615 C 140.643 237.074,140.765 236.174,140.678 235.615 L 140.520 234.600 140.454 235.600 M259.256 235.600 C 259.256 235.930,259.411 236.560,259.600 237.000 C 259.817 237.504,259.944 237.578,259.944 237.200 C 259.944 236.870,259.789 236.240,259.600 235.800 C 259.383 235.296,259.256 235.222,259.256 235.600 M139.454 241.154 C 139.300 242.118,139.258 242.991,139.361 243.094 C 139.630 243.363,140.115 240.545,139.907 239.922 C 139.812 239.636,139.608 240.190,139.454 241.154 M138.849 245.000 C 138.816 245.440,138.696 246.250,138.583 246.800 L 138.377 247.800 138.806 246.819 C 139.042 246.279,139.161 245.469,139.072 245.019 C 138.913 244.221,138.907 244.221,138.849 245.000 M260.856 244.800 C 260.856 245.130,261.011 245.760,261.200 246.200 C 261.417 246.704,261.544 246.778,261.544 246.400 C 261.544 246.070,261.389 245.440,261.200 245.000 C 260.983 244.496,260.856 244.422,260.856 244.800 M137.822 250.622 C 137.672 251.425,137.638 252.172,137.748 252.282 C 137.858 252.392,138.072 251.825,138.222 251.022 C 138.373 250.219,138.406 249.473,138.296 249.363 C 138.186 249.253,137.973 249.819,137.822 250.622 M261.656 249.600 C 261.656 249.930,261.811 250.560,262.000 251.000 C 262.217 251.504,262.344 251.578,262.344 251.200 C 262.344 250.870,262.189 250.240,262.000 249.800 C 261.783 249.296,261.656 249.222,261.656 249.600 M137.054 255.154 C 136.900 256.118,136.858 256.991,136.961 257.094 C 137.230 257.363,137.715 254.545,137.507 253.922 C 137.412 253.636,137.208 254.190,137.054 255.154 M68.800 257.771 C 68.800 258.254,74.048 268.783,74.397 268.998 C 74.659 269.160,69.371 258.148,68.940 257.633 C 68.863 257.542,68.800 257.603,68.800 257.771 M136.222 259.822 C 136.072 260.625,136.038 261.372,136.148 261.482 C 136.258 261.592,136.472 261.025,136.622 260.222 C 136.773 259.419,136.806 258.673,136.696 258.563 C 136.586 258.453,136.373 259.019,136.222 259.822 M263.256 258.800 C 263.256 259.130,263.411 259.760,263.600 260.200 C 263.817 260.704,263.944 260.778,263.944 260.400 C 263.944 260.070,263.789 259.440,263.600 259.000 C 263.383 258.496,263.256 258.422,263.256 258.800 M135.422 264.622 C 135.272 265.425,135.238 266.172,135.348 266.282 C 135.458 266.392,135.672 265.825,135.822 265.022 C 135.973 264.219,136.006 263.473,135.896 263.363 C 135.786 263.253,135.573 263.819,135.422 264.622 M264.244 264.200 C 264.573 265.671,264.802 265.990,264.794 264.967 C 264.791 264.545,264.605 263.930,264.382 263.600 C 264.085 263.162,264.048 263.324,264.244 264.200 M189.890 267.868 C 188.400 268.663,187.242 269.375,187.317 269.450 C 187.480 269.613,192.800 266.822,192.800 266.573 C 192.800 266.315,192.812 266.310,189.890 267.868 M134.640 269.240 C 134.493 270.157,134.452 270.985,134.547 271.080 C 134.642 271.176,134.846 270.510,135.000 269.600 C 135.154 268.690,135.196 267.862,135.093 267.760 C 134.990 267.657,134.787 268.323,134.640 269.240 M264.868 268.000 C 264.888 269.039,265.518 270.746,265.532 269.800 C 265.538 269.360,265.389 268.640,265.200 268.200 C 264.989 267.710,264.861 267.632,264.868 268.000 M74.815 269.800 C 74.817 270.020,75.186 270.650,75.636 271.200 C 76.179 271.864,76.315 271.931,76.040 271.400 C 75.366 270.095,74.812 269.372,74.815 269.800 M183.500 271.227 C 182.675 271.663,182.000 272.108,182.000 272.218 C 182.000 272.327,182.720 272.049,183.600 271.600 C 184.480 271.151,185.200 270.697,185.200 270.592 C 185.200 270.330,185.197 270.331,183.500 271.227 M76.415 272.600 C 76.417 272.820,76.786 273.450,77.236 274.000 C 77.779 274.664,77.915 274.731,77.640 274.200 C 76.966 272.895,76.412 272.172,76.415 272.600 M133.800 274.000 C 133.646 274.910,133.611 275.744,133.721 275.854 C 133.831 275.964,134.046 275.310,134.200 274.400 C 134.354 273.490,134.389 272.656,134.279 272.546 C 134.169 272.436,133.954 273.090,133.800 274.000 M177.125 274.555 C 175.874 275.249,174.704 275.969,174.525 276.156 C 174.180 276.516,178.584 274.318,179.600 273.623 C 180.860 272.761,179.301 273.348,177.125 274.555 M266.673 278.400 C 266.804 279.390,266.976 280.275,267.056 280.367 C 267.357 280.714,267.128 278.164,266.790 277.400 C 266.553 276.866,266.514 277.198,266.673 278.400 M133.000 278.800 C 132.846 279.710,132.804 280.538,132.907 280.640 C 133.010 280.743,133.213 280.077,133.360 279.160 C 133.507 278.243,133.548 277.415,133.453 277.320 C 133.358 277.224,133.154 277.890,133.000 278.800 M168.711 278.960 C 166.387 280.341,166.382 280.606,168.700 279.441 C 169.855 278.861,170.800 278.300,170.800 278.193 C 170.800 277.849,170.229 278.058,168.711 278.960 M80.400 278.999 C 80.400 279.279,83.239 283.200,83.442 283.200 C 83.533 283.200,82.951 282.210,82.147 281.000 C 80.785 278.948,80.400 278.507,80.400 278.999 M132.805 282.280 C 132.808 282.456,133.438 283.007,134.205 283.504 C 136.003 284.668,136.000 284.400,134.200 283.027 C 133.430 282.440,132.802 282.103,132.805 282.280 M159.461 283.846 C 158.394 284.401,157.602 284.935,157.700 285.033 C 157.887 285.221,161.600 283.252,161.600 282.966 C 161.600 282.732,161.610 282.728,159.461 283.846 M84.601 285.000 C 85.238 285.880,87.208 288.377,88.979 290.549 C 90.751 292.721,92.400 294.746,92.644 295.049 C 92.888 295.352,93.240 295.600,93.425 295.600 C 93.611 295.600,93.119 294.925,92.334 294.100 C 91.548 293.275,89.422 290.710,87.609 288.400 C 84.152 283.996,82.632 282.277,84.601 285.000 M263.600 284.849 C 262.206 286.071,262.205 286.072,263.488 285.219 C 264.196 284.748,264.882 284.191,265.012 283.981 C 265.397 283.357,265.077 283.554,263.600 284.849 M136.000 284.533 C 136.000 284.699,143.978 290.674,145.090 291.341 C 145.534 291.607,150.574 289.241,150.251 288.918 C 150.177 288.843,149.086 289.324,147.828 289.985 L 145.540 291.189 143.270 289.607 C 142.021 288.737,139.875 287.199,138.500 286.189 C 137.125 285.179,136.000 284.434,136.000 284.533 M155.689 285.865 C 154.968 286.220,154.443 286.577,154.524 286.657 C 154.695 286.828,157.200 285.624,157.200 285.371 C 157.200 285.129,157.147 285.146,155.689 285.865 M152.300 287.627 C 151.475 288.063,150.800 288.508,150.800 288.618 C 150.800 288.727,151.520 288.449,152.400 288.000 C 153.280 287.551,154.000 287.097,154.000 286.992 C 154.000 286.730,153.997 286.731,152.300 287.627 M259.000 288.235 L 257.800 289.266 259.100 288.406 C 259.815 287.933,260.400 287.468,260.400 287.373 C 260.400 287.073,260.231 287.178,259.000 288.235 M96.031 298.700 C 97.444 300.185,99.860 302.564,101.400 303.987 C 102.940 305.410,101.863 304.195,99.006 301.287 C 96.149 298.379,93.733 296.000,93.637 296.000 C 93.541 296.000,94.619 297.215,96.031 298.700 M301.200 301.400 C 300.228 302.390,299.523 303.200,299.633 303.200 C 299.743 303.200,300.628 302.390,301.600 301.400 C 302.572 300.410,303.277 299.600,303.167 299.600 C 303.057 299.600,302.172 300.410,301.200 301.400 M104.400 306.605 C 104.400 306.774,104.648 307.112,104.951 307.356 C 105.254 307.600,107.279 309.249,109.451 311.021 C 113.638 314.436,117.471 317.282,115.548 315.548 C 114.969 315.027,112.989 313.432,111.148 312.004 C 109.307 310.576,107.035 308.708,106.100 307.853 C 105.165 306.998,104.400 306.436,104.400 306.605 M118.269 317.632 C 118.766 318.233,121.200 319.764,121.200 319.476 C 121.200 319.383,120.435 318.802,119.500 318.185 C 118.565 317.568,118.011 317.320,118.269 317.632 M124.000 321.314 C 124.000 321.555,127.106 323.600,127.471 323.600 C 127.630 323.600,127.589 323.449,127.380 323.264 C 126.752 322.708,124.000 321.121,124.000 321.314 M128.800 324.364 C 129.350 324.814,129.980 325.183,130.200 325.185 C 130.628 325.188,129.905 324.634,128.600 323.960 C 128.069 323.685,128.136 323.821,128.800 324.364 M131.000 325.555 C 131.416 325.972,136.809 328.813,138.188 329.341 C 139.820 329.966,138.353 329.085,134.543 327.153 C 132.374 326.053,130.780 325.334,131.000 325.555 M139.254 329.787 C 139.590 330.123,142.400 331.216,142.400 331.011 C 142.400 330.901,141.748 330.538,140.951 330.205 C 139.475 329.589,138.918 329.451,139.254 329.787 M145.426 332.565 C 147.444 333.444,148.726 333.659,147.000 332.829 C 146.120 332.406,145.130 332.053,144.800 332.045 C 144.470 332.038,144.752 332.272,145.426 332.565 M158.400 337.200 C 158.730 337.413,159.270 337.588,159.600 337.588 C 160.133 337.588,160.133 337.545,159.600 337.200 C 159.270 336.987,158.730 336.812,158.400 336.812 C 157.867 336.812,157.867 336.855,158.400 337.200 M161.200 338.000 C 161.530 338.213,162.070 338.388,162.400 338.388 C 162.933 338.388,162.933 338.345,162.400 338.000 C 162.070 337.787,161.530 337.612,161.200 337.612 C 160.667 337.612,160.667 337.655,161.200 338.000 M164.000 338.800 C 164.330 339.013,164.960 339.178,165.400 339.166 L 166.200 339.144 165.400 338.800 C 164.204 338.286,163.205 338.286,164.000 338.800 M167.600 339.582 C 167.930 339.805,168.545 339.991,168.967 339.994 C 169.990 340.002,169.671 339.773,168.200 339.444 C 167.324 339.248,167.162 339.285,167.600 339.582 M170.800 340.388 C 171.130 340.608,172.015 340.791,172.767 340.794 C 174.560 340.802,174.241 340.575,172.000 340.250 C 170.742 340.067,170.381 340.109,170.800 340.388 M175.400 341.190 C 176.164 341.528,178.714 341.757,178.367 341.456 C 178.275 341.376,177.390 341.204,176.400 341.073 C 175.198 340.914,174.866 340.953,175.400 341.190 M180.600 341.985 C 181.822 342.311,185.070 342.520,184.767 342.253 C 184.675 342.172,183.430 342.007,182.000 341.885 C 180.362 341.746,179.844 341.782,180.600 341.985 M218.305 342.283 C 218.802 342.379,219.522 342.375,219.905 342.275 C 220.287 342.175,219.880 342.096,219.000 342.101 C 218.120 342.105,217.807 342.187,218.305 342.283 M187.600 342.838 C 189.327 343.128,200.223 343.280,199.400 343.002 C 199.180 342.927,196.030 342.792,192.400 342.701 C 188.707 342.608,186.593 342.668,187.600 342.838 M209.091 343.089 C 209.801 343.177,211.061 343.179,211.891 343.092 C 212.721 343.005,212.140 342.933,210.600 342.931 C 209.060 342.929,208.381 343.000,209.091 343.089 " stroke="none" fill="#b49661" fill-rule="evenodd"></path><path id="path4" d="M201.715 57.096 C 202.988 57.176,204.968 57.175,206.115 57.094 C 207.262 57.014,206.220 56.949,203.800 56.950 C 201.380 56.951,200.442 57.016,201.715 57.096 M186.800 57.600 L 184.600 57.870 187.200 57.887 C 188.630 57.897,190.340 57.768,191.000 57.600 C 192.592 57.195,190.107 57.195,186.800 57.600 M213.000 57.606 C 214.601 57.954,217.881 58.131,217.567 57.852 C 217.475 57.771,216.050 57.604,214.400 57.481 C 212.176 57.316,211.814 57.348,213.000 57.606 M179.800 58.400 L 178.200 58.686 180.000 58.715 C 180.990 58.731,182.160 58.589,182.600 58.400 C 183.624 57.960,182.257 57.960,179.800 58.400 M221.505 58.683 C 222.002 58.779,222.722 58.775,223.105 58.675 C 223.487 58.575,223.080 58.496,222.200 58.501 C 221.320 58.505,221.007 58.587,221.505 58.683 M174.800 59.200 L 173.400 59.495 174.800 59.541 C 175.570 59.567,176.470 59.413,176.800 59.200 C 177.527 58.730,177.033 58.730,174.800 59.200 M226.100 59.476 C 226.485 59.576,227.115 59.576,227.500 59.476 C 227.885 59.375,227.570 59.293,226.800 59.293 C 226.030 59.293,225.715 59.375,226.100 59.476 M170.600 60.000 L 169.400 60.305 170.600 60.347 C 171.260 60.369,172.070 60.213,172.400 60.000 C 173.143 59.520,172.487 59.520,170.600 60.000 M229.200 59.963 C 229.530 60.144,230.520 60.398,231.400 60.528 C 232.318 60.664,232.744 60.625,232.400 60.437 C 232.070 60.256,231.080 60.002,230.200 59.872 C 229.282 59.736,228.856 59.775,229.200 59.963 M167.000 60.800 L 165.800 61.105 167.000 61.147 C 167.660 61.169,168.470 61.013,168.800 60.800 C 169.543 60.320,168.887 60.320,167.000 60.800 M162.600 61.844 C 155.346 63.980,147.434 66.768,147.746 67.079 C 147.828 67.162,148.864 66.847,150.048 66.380 C 151.232 65.912,153.460 65.123,155.000 64.625 C 157.559 63.799,158.593 63.490,162.800 62.294 C 163.570 62.075,164.560 61.752,165.000 61.575 C 166.354 61.032,164.749 61.212,162.600 61.844 M237.400 62.015 C 240.329 62.828,241.789 63.144,241.936 62.997 C 242.023 62.910,241.578 62.728,240.947 62.592 C 240.316 62.456,239.387 62.177,238.881 61.972 C 238.376 61.768,237.566 61.618,237.081 61.641 C 236.381 61.673,236.447 61.750,237.400 62.015 M130.300 75.029 C 129.695 75.357,129.200 75.710,129.200 75.813 C 129.200 76.199,129.832 75.957,130.800 75.200 C 131.989 74.270,131.811 74.209,130.300 75.029 M271.200 75.964 C 271.750 76.414,272.380 76.783,272.600 76.785 C 273.028 76.788,272.305 76.234,271.000 75.560 C 270.469 75.285,270.536 75.421,271.200 75.964 M127.400 76.800 C 126.740 77.237,126.380 77.592,126.600 77.588 C 127.001 77.582,129.176 76.023,128.800 76.012 C 128.690 76.008,128.060 76.363,127.400 76.800 M120.733 80.981 C 117.949 82.841,115.544 84.568,115.388 84.819 C 115.145 85.212,124.722 78.868,125.780 77.935 C 126.840 77.000,125.316 77.920,120.733 80.981 M275.000 78.207 C 275.440 78.566,276.160 79.035,276.600 79.251 L 277.400 79.644 276.600 78.993 C 276.160 78.634,275.440 78.165,275.000 77.949 L 274.200 77.556 275.000 78.207 M282.569 83.149 C 282.959 83.782,285.201 85.299,285.195 84.927 C 285.192 84.747,284.543 84.181,283.752 83.668 C 282.960 83.155,282.428 82.922,282.569 83.149 M112.300 87.035 C 109.952 88.903,109.110 89.900,111.100 88.456 C 112.626 87.350,115.042 85.235,114.800 85.219 C 114.690 85.212,113.565 86.029,112.300 87.035 M285.740 85.503 C 285.896 85.756,286.591 86.367,287.284 86.860 C 287.977 87.354,288.417 87.550,288.260 87.297 C 288.104 87.044,287.409 86.433,286.716 85.940 C 286.023 85.446,285.583 85.250,285.740 85.503 M105.182 92.952 C 98.998 98.454,88.442 109.625,89.463 109.588 C 89.648 109.581,90.430 108.737,91.200 107.713 C 93.791 104.267,106.929 91.387,109.567 89.706 C 109.658 89.648,109.650 89.517,109.549 89.416 C 109.448 89.314,107.483 90.906,105.182 92.952 M296.784 94.805 C 298.965 96.787,302.562 100.382,304.775 102.793 C 306.989 105.204,308.800 106.994,308.800 106.772 C 308.800 106.243,293.754 91.200,293.224 91.200 C 293.000 91.200,294.602 92.822,296.784 94.805 M191.776 99.106 C 191.339 99.409,181.183 119.823,181.222 120.321 C 181.233 120.474,183.641 115.830,186.572 110.000 L 191.902 99.400 200.051 99.187 L 208.200 98.975 200.200 98.894 C 195.800 98.849,192.009 98.944,191.776 99.106 M208.401 99.397 C 208.400 99.855,212.000 107.200,212.225 107.200 C 212.460 107.200,212.037 106.237,210.153 102.487 C 209.190 100.569,208.402 99.179,208.401 99.397 M86.283 113.300 C 84.073 116.148,78.812 123.789,77.813 125.600 C 76.970 127.130,78.546 124.994,81.797 120.200 C 83.736 117.340,85.975 114.190,86.772 113.200 C 89.031 110.394,89.314 110.000,89.071 110.000 C 88.946 110.000,87.691 111.485,86.283 113.300 M313.140 112.716 C 313.633 113.409,314.244 114.104,314.497 114.260 C 314.750 114.417,314.554 113.977,314.060 113.284 C 313.567 112.591,312.956 111.896,312.703 111.740 C 312.450 111.583,312.646 112.023,313.140 112.716 M315.591 115.988 C 316.057 116.641,316.642 117.302,316.891 117.456 C 317.141 117.611,316.841 117.076,316.225 116.268 C 314.888 114.515,314.384 114.292,315.591 115.988 M320.209 122.626 C 320.581 123.301,321.241 124.291,321.676 124.826 L 322.467 125.800 321.791 124.574 C 321.419 123.899,320.759 122.909,320.324 122.374 L 319.533 121.400 320.209 122.626 M76.586 127.700 L 75.952 129.000 76.767 128.000 C 77.552 127.037,77.808 126.400,77.410 126.400 C 77.306 126.400,76.935 126.985,76.586 127.700 M323.215 127.400 C 323.217 127.620,323.586 128.250,324.036 128.800 C 324.579 129.464,324.715 129.531,324.440 129.000 C 323.766 127.695,323.212 126.972,323.215 127.400 M74.986 130.500 L 74.352 131.800 75.167 130.800 C 75.952 129.837,76.208 129.200,75.810 129.200 C 75.706 129.200,75.335 129.785,74.986 130.500 M169.478 143.743 C 166.101 150.606,164.227 153.990,163.733 154.118 C 163.151 154.268,163.134 154.317,163.651 154.354 C 164.009 154.379,164.488 154.175,164.716 153.900 C 165.403 153.070,174.850 133.916,174.663 133.730 C 174.568 133.635,172.235 138.141,169.478 143.743 M225.309 133.900 C 225.395 134.065,225.774 134.875,226.152 135.700 C 226.529 136.525,226.930 137.200,227.042 137.200 C 227.155 137.200,227.177 137.065,227.091 136.900 C 227.005 136.735,226.626 135.925,226.248 135.100 C 225.871 134.275,225.470 133.600,225.358 133.600 C 225.245 133.600,225.223 133.735,225.309 133.900 M69.472 141.419 C 68.532 143.389,68.664 143.724,69.647 141.862 C 70.093 141.016,70.387 140.254,70.301 140.167 C 70.214 140.081,69.841 140.644,69.472 141.419 M66.570 148.243 C 66.434 148.659,66.051 149.720,65.720 150.600 C 63.780 155.759,61.021 165.155,61.350 165.483 C 61.466 165.599,61.674 165.178,61.813 164.547 C 61.952 163.916,62.210 162.950,62.386 162.400 C 62.563 161.850,62.935 160.590,63.214 159.600 C 64.039 156.668,65.470 152.352,66.380 150.048 C 66.847 148.864,67.137 147.804,67.024 147.691 C 66.911 147.578,66.707 147.826,66.570 148.243 M234.797 153.119 C 235.360 154.265,236.756 154.816,238.926 154.748 C 240.417 154.701,240.342 154.662,238.237 154.394 C 236.460 154.167,235.684 153.858,235.110 153.146 L 234.346 152.200 234.797 153.119 M158.800 154.821 C 158.152 155.042,158.645 155.080,160.200 154.931 C 161.520 154.804,162.675 154.632,162.767 154.550 C 163.090 154.259,159.786 154.484,158.800 154.821 M241.800 155.215 C 242.574 155.533,246.704 155.749,246.367 155.454 C 246.275 155.374,245.030 155.213,243.600 155.098 C 242.073 154.974,241.330 155.022,241.800 155.215 M153.400 155.608 C 152.892 155.831,153.476 155.874,155.000 155.724 C 156.320 155.595,157.475 155.424,157.567 155.344 C 157.921 155.037,154.157 155.275,153.400 155.608 M247.400 156.015 C 248.174 156.333,252.304 156.549,251.967 156.254 C 251.875 156.174,250.630 156.013,249.200 155.898 C 247.673 155.774,246.930 155.822,247.400 156.015 M336.244 156.600 C 336.573 158.071,336.802 158.390,336.794 157.367 C 336.791 156.945,336.605 156.330,336.382 156.000 C 336.085 155.562,336.048 155.724,336.244 156.600 M147.800 156.414 C 147.278 156.648,147.763 156.688,149.200 156.532 C 150.410 156.400,151.475 156.226,151.567 156.146 C 151.921 155.836,148.557 156.075,147.800 156.414 M252.866 156.849 C 253.160 157.035,254.300 157.176,255.400 157.162 C 257.795 157.132,257.397 156.929,254.466 156.687 C 253.218 156.584,252.554 156.651,252.866 156.849 M142.400 157.196 C 141.999 157.452,142.530 157.498,144.000 157.334 C 145.210 157.199,146.275 157.023,146.367 156.944 C 146.758 156.606,142.944 156.848,142.400 157.196 M137.000 158.014 C 136.478 158.248,136.963 158.288,138.400 158.132 C 139.610 158.000,140.675 157.826,140.767 157.746 C 141.121 157.436,137.757 157.675,137.000 158.014 M258.833 157.746 C 258.925 157.826,260.170 157.987,261.600 158.102 C 263.127 158.226,263.870 158.178,263.400 157.985 C 262.626 157.667,258.496 157.451,258.833 157.746 M131.400 158.800 C 130.336 159.257,132.003 159.257,133.800 158.800 L 135.000 158.495 133.600 158.475 C 132.830 158.465,131.840 158.611,131.400 158.800 M264.600 158.600 C 265.561 158.928,269.225 159.062,268.734 158.751 C 268.440 158.565,267.300 158.424,266.200 158.438 C 265.100 158.452,264.380 158.525,264.600 158.600 M126.000 159.623 C 125.574 159.914,125.980 159.955,127.400 159.765 C 128.500 159.618,129.475 159.431,129.567 159.349 C 129.968 158.990,126.539 159.254,126.000 159.623 M270.200 159.400 C 271.161 159.728,274.825 159.862,274.334 159.551 C 274.040 159.365,272.900 159.224,271.800 159.238 C 270.700 159.252,269.980 159.325,270.200 159.400 M120.600 160.420 C 120.061 160.665,120.454 160.705,121.800 160.541 C 122.900 160.407,123.875 160.231,123.967 160.149 C 124.317 159.836,121.361 160.074,120.600 160.420 M276.033 160.147 C 276.125 160.228,277.079 160.388,278.154 160.504 C 279.349 160.632,279.893 160.578,279.554 160.363 C 279.035 160.035,275.671 159.828,276.033 160.147 M115.000 161.200 C 113.936 161.657,115.603 161.657,117.400 161.200 L 118.600 160.895 117.200 160.875 C 116.430 160.865,115.440 161.011,115.000 161.200 M282.033 160.945 C 282.125 161.025,283.001 161.192,283.979 161.318 C 285.130 161.465,285.554 161.416,285.179 161.179 C 284.645 160.840,281.658 160.619,282.033 160.945 M109.600 162.000 L 108.600 162.320 109.600 162.313 C 110.150 162.309,111.140 162.168,111.800 162.000 L 113.000 161.695 111.800 161.687 C 111.140 161.683,110.150 161.824,109.600 162.000 M288.033 161.747 C 288.125 161.828,288.920 162.014,289.800 162.162 C 290.946 162.354,291.230 162.314,290.800 162.021 C 290.260 161.653,287.632 161.393,288.033 161.747 M104.162 162.790 C 103.390 163.102,99.662 172.995,100.137 173.470 C 100.220 173.554,100.975 171.502,101.814 168.911 C 103.626 163.316,103.614 163.336,105.735 162.859 C 107.159 162.540,107.226 162.483,106.200 162.468 C 105.540 162.459,104.623 162.603,104.162 162.790 M293.233 162.543 C 293.676 162.922,296.017 163.151,295.796 162.794 C 295.662 162.577,294.993 162.400,294.310 162.400 C 293.626 162.400,293.142 162.464,293.233 162.543 M60.854 166.600 C 60.819 167.040,60.689 167.850,60.567 168.400 C 60.375 169.263,60.407 169.303,60.798 168.690 C 61.047 168.299,61.177 167.489,61.086 166.890 C 60.978 166.179,60.897 166.079,60.854 166.600 M339.606 169.233 C 339.609 169.765,339.789 170.470,340.006 170.800 C 340.282 171.222,340.323 170.985,340.142 170.000 C 339.825 168.275,339.598 167.949,339.606 169.233 M60.054 170.200 C 60.019 170.640,59.889 171.450,59.767 172.000 C 59.575 172.863,59.607 172.903,59.998 172.290 C 60.247 171.899,60.377 171.089,60.286 170.490 C 60.178 169.779,60.097 169.679,60.054 170.200 M340.428 173.233 C 340.444 173.985,340.612 174.960,340.803 175.400 C 341.026 175.915,341.067 175.487,340.918 174.200 C 340.644 171.822,340.389 171.319,340.428 173.233 M59.259 174.400 C 59.220 174.950,59.089 175.850,58.967 176.400 C 58.776 177.262,58.808 177.302,59.197 176.691 C 59.446 176.302,59.577 175.402,59.489 174.691 C 59.364 173.687,59.313 173.622,59.259 174.400 M98.667 177.398 C 98.353 178.531,98.527 178.779,101.868 181.972 C 103.810 183.829,111.790 191.594,119.600 199.229 C 127.410 206.864,135.737 214.961,138.105 217.222 L 142.410 221.335 142.220 223.367 L 142.030 225.400 142.471 223.430 L 142.912 221.461 136.742 215.430 C 133.349 212.114,127.159 206.086,122.986 202.036 C 102.928 182.566,99.250 178.778,99.122 177.462 L 98.999 176.200 98.667 177.398 M341.240 178.033 C 341.262 178.785,341.430 179.850,341.613 180.400 C 341.829 181.046,341.866 180.620,341.719 179.200 C 341.459 176.683,341.181 176.007,341.240 178.033 M301.033 177.742 C 301.180 178.124,299.263 180.317,295.510 184.063 C 292.348 187.218,291.391 188.248,293.381 186.351 C 295.371 184.454,298.035 181.948,299.300 180.782 C 301.546 178.713,302.006 177.898,301.205 177.403 C 300.983 177.266,300.908 177.415,301.033 177.742 M58.465 179.200 C 58.425 179.750,58.299 180.920,58.185 181.800 C 58.006 183.194,58.034 183.273,58.408 182.414 C 58.645 181.872,58.771 180.702,58.689 179.814 C 58.607 178.926,58.506 178.650,58.465 179.200 M342.023 183.833 C 342.036 184.695,342.203 186.120,342.394 187.000 C 342.652 188.186,342.684 187.824,342.519 185.600 C 342.277 182.347,341.986 181.310,342.023 183.833 M57.475 188.142 C 57.297 190.091,57.237 191.771,57.343 191.876 C 57.643 192.176,58.078 187.975,57.931 186.200 C 57.840 185.103,57.696 185.713,57.475 188.142 M342.969 200.000 C 342.969 204.510,343.027 206.355,343.098 204.100 C 343.170 201.845,343.170 198.155,343.098 195.900 C 343.027 193.645,342.969 195.490,342.969 200.000 M267.291 211.519 L 257.182 221.400 257.575 223.800 L 257.968 226.200 257.797 223.800 L 257.626 221.400 267.713 211.521 C 273.261 206.088,277.710 201.642,277.600 201.640 C 277.490 201.639,272.851 206.085,267.291 211.519 M57.473 211.400 C 57.596 213.380,57.765 215.075,57.848 215.167 C 58.136 215.483,57.905 210.197,57.578 209.000 C 57.381 208.279,57.339 209.238,57.473 211.400 M342.192 214.138 C 342.039 215.569,341.993 216.978,342.090 217.270 C 342.187 217.561,342.390 216.468,342.542 214.841 C 342.693 213.214,342.739 211.805,342.643 211.710 C 342.548 211.615,342.345 212.708,342.192 214.138 M58.257 219.000 C 58.391 220.320,58.568 221.475,58.650 221.567 C 58.969 221.921,58.724 218.156,58.379 217.400 C 58.138 216.872,58.096 217.416,58.257 219.000 M341.453 220.036 C 341.314 220.731,341.221 221.773,341.247 222.350 C 341.272 222.928,341.455 222.427,341.652 221.239 C 342.037 218.921,341.873 217.934,341.453 220.036 M59.050 224.400 C 59.375 226.641,59.602 226.960,59.594 225.167 C 59.591 224.415,59.408 223.530,59.188 223.200 C 58.909 222.781,58.867 223.142,59.050 224.400 M340.656 224.884 C 340.521 225.388,340.430 226.340,340.453 227.000 C 340.481 227.828,340.597 227.584,340.826 226.213 C 341.176 224.123,341.074 223.326,340.656 224.884 M141.473 226.953 C 141.323 227.345,141.218 228.236,141.240 228.933 C 141.279 230.167,141.290 230.159,141.649 228.627 C 142.045 226.937,141.924 225.779,141.473 226.953 M258.296 228.246 C 258.412 229.321,258.572 230.275,258.653 230.367 C 258.972 230.729,258.765 227.365,258.437 226.846 C 258.222 226.507,258.168 227.051,258.296 228.246 M59.838 228.600 C 60.170 230.584,60.402 230.904,60.394 229.367 C 60.391 228.725,60.204 227.930,59.979 227.600 C 59.686 227.170,59.646 227.454,59.838 228.600 M339.849 229.415 C 339.712 229.773,339.618 230.456,339.641 230.933 C 339.667 231.481,339.803 231.286,340.010 230.403 C 340.360 228.916,340.265 228.333,339.849 229.415 M60.638 232.200 C 60.970 234.184,61.202 234.504,61.194 232.967 C 61.191 232.325,61.004 231.530,60.779 231.200 C 60.486 230.770,60.446 231.054,60.638 232.200 M140.649 231.815 C 140.512 232.173,140.420 233.036,140.444 233.733 C 140.482 234.837,140.533 234.771,140.836 233.225 C 141.193 231.405,141.094 230.657,140.649 231.815 M259.309 233.600 C 259.309 234.590,259.387 234.995,259.482 234.500 C 259.578 234.005,259.578 233.195,259.482 232.700 C 259.387 232.205,259.309 232.610,259.309 233.600 M61.227 234.617 C 61.131 236.096,66.638 252.695,67.079 252.254 C 67.162 252.172,66.847 251.136,66.380 249.952 C 65.213 246.997,63.733 242.391,62.412 237.600 C 61.812 235.427,61.264 234.047,61.227 234.617 M139.873 236.153 C 139.723 236.545,139.620 237.526,139.644 238.333 L 139.688 239.800 140.042 238.000 C 140.422 236.070,140.322 234.983,139.873 236.153 M260.224 238.600 C 260.322 239.700,260.571 241.500,260.778 242.600 L 261.153 244.600 260.976 242.600 C 260.878 241.500,260.629 239.700,260.422 238.600 L 260.047 236.600 260.224 238.600 M139.049 241.015 C 138.912 241.373,138.821 242.326,138.847 243.133 C 138.890 244.483,138.920 244.442,139.226 242.613 C 139.568 240.570,139.490 239.867,139.049 241.015 M336.446 242.467 C 336.421 242.834,336.296 243.464,336.170 243.867 C 335.952 244.562,335.963 244.563,336.397 243.887 C 336.648 243.496,336.773 242.866,336.673 242.487 C 336.511 241.868,336.488 241.866,336.446 242.467 M138.216 246.259 C 138.087 247.107,137.806 248.669,137.591 249.731 C 137.376 250.792,137.223 252.142,137.250 252.731 C 137.287 253.525,137.376 253.389,137.595 252.200 C 138.474 247.431,138.811 245.078,138.642 244.908 C 138.537 244.804,138.346 245.412,138.216 246.259 M261.628 247.433 C 261.644 248.295,261.809 249.360,261.996 249.800 C 262.208 250.298,262.251 249.769,262.112 248.400 C 261.844 245.765,261.589 245.257,261.628 247.433 M262.406 252.233 C 262.409 253.095,262.570 254.049,262.763 254.354 C 262.978 254.693,263.032 254.149,262.904 252.954 C 262.642 250.517,262.398 250.164,262.406 252.233 M136.611 255.459 C 136.255 257.735,135.615 261.526,135.203 263.800 C 134.163 269.533,133.574 273.707,133.774 273.908 C 133.898 274.032,134.001 273.968,134.001 273.767 C 134.002 273.565,134.371 271.240,134.822 268.600 C 135.273 265.960,135.804 262.810,136.002 261.600 C 136.200 260.390,136.558 258.253,136.797 256.850 C 137.037 255.448,137.148 254.214,137.043 254.109 C 136.938 254.004,136.743 254.612,136.611 255.459 M263.228 256.833 C 263.244 257.585,263.412 258.560,263.603 259.000 C 263.826 259.515,263.867 259.087,263.718 257.800 C 263.444 255.422,263.189 254.919,263.228 256.833 M68.834 257.000 C 68.834 257.220,69.178 258.030,69.600 258.800 C 70.022 259.570,70.366 260.020,70.366 259.800 C 70.366 259.580,70.022 258.770,69.600 258.000 C 69.178 257.230,68.834 256.780,68.834 257.000 M264.006 261.833 C 264.009 262.475,264.184 263.270,264.395 263.600 C 264.655 264.009,264.699 263.690,264.532 262.600 C 264.229 260.623,263.998 260.286,264.006 261.833 M193.929 266.119 C 190.921 267.708,188.311 269.169,188.129 269.365 C 187.948 269.562,190.484 268.333,193.765 266.634 C 198.329 264.271,199.973 263.602,200.765 263.785 C 201.545 263.965,201.652 263.924,201.200 263.618 C 200.183 262.930,199.573 263.140,193.929 266.119 M264.868 266.600 C 264.862 267.040,265.011 267.760,265.200 268.200 C 265.638 269.219,265.638 268.168,265.200 266.800 C 264.943 265.996,264.877 265.957,264.868 266.600 M74.986 269.500 C 75.335 270.215,75.706 270.800,75.810 270.800 C 76.208 270.800,75.952 270.163,75.167 269.200 L 74.352 268.200 74.986 269.500 M265.668 271.400 C 265.662 271.840,265.811 272.560,266.000 273.000 C 266.438 274.019,266.438 272.968,266.000 271.600 C 265.743 270.796,265.677 270.757,265.668 271.400 M76.586 272.300 C 76.935 273.015,77.306 273.600,77.410 273.600 C 77.808 273.600,77.552 272.963,76.767 272.000 L 75.952 271.000 76.586 272.300 M180.661 273.046 C 179.594 273.601,178.808 274.142,178.914 274.247 C 179.111 274.444,181.900 273.011,182.580 272.362 C 183.160 271.809,182.775 271.946,180.661 273.046 M77.813 274.400 C 79.657 277.744,88.501 290.000,89.071 290.000 C 89.314 290.000,89.031 289.606,86.772 286.800 C 85.975 285.810,83.736 282.660,81.797 279.800 C 78.546 275.006,76.970 272.870,77.813 274.400 M222.167 275.001 C 223.249 275.550,224.192 275.942,224.262 275.871 C 224.449 275.684,221.206 274.000,220.662 274.002 C 220.408 274.003,221.085 274.452,222.167 275.001 M133.046 276.347 C 132.889 277.527,132.846 278.579,132.950 278.683 C 133.217 278.950,133.722 275.364,133.507 274.725 C 133.411 274.436,133.203 275.166,133.046 276.347 M321.446 275.400 C 321.091 275.950,320.509 276.895,320.153 277.500 L 319.505 278.600 320.310 277.626 C 321.260 276.476,322.521 274.400,322.269 274.400 C 322.171 274.400,321.801 274.850,321.446 275.400 M266.456 276.000 C 266.456 276.330,266.611 276.960,266.800 277.400 C 267.017 277.904,267.144 277.978,267.144 277.600 C 267.144 277.270,266.989 276.640,266.800 276.200 C 266.583 275.696,266.456 275.622,266.456 276.000 M171.800 277.767 C 170.920 278.258,167.680 279.968,164.600 281.567 C 161.520 283.167,158.820 284.664,158.600 284.894 C 158.380 285.124,160.540 284.092,163.400 282.599 C 166.260 281.107,169.680 279.330,171.000 278.651 C 173.896 277.160,173.772 277.238,173.567 277.037 C 173.475 276.947,172.680 277.275,171.800 277.767 M132.377 280.529 C 132.107 282.382,132.264 282.587,135.800 284.980 C 137.340 286.022,138.060 286.402,137.400 285.825 C 136.740 285.248,135.443 284.291,134.518 283.698 C 132.997 282.722,132.825 282.446,132.718 280.809 L 132.600 279.000 132.377 280.529 M267.288 281.624 C 267.308 282.305,267.452 282.640,267.613 282.380 C 267.873 281.958,267.690 280.400,267.380 280.400 C 267.310 280.400,267.269 280.951,267.288 281.624 M316.344 283.100 C 315.193 284.489,314.706 285.200,314.904 285.200 C 315.014 285.200,315.586 284.570,316.173 283.800 C 317.263 282.371,317.395 281.832,316.344 283.100 M265.185 284.032 L 263.800 285.263 265.088 284.413 C 266.230 283.659,267.093 282.800,266.708 282.800 C 266.632 282.800,265.947 283.354,265.185 284.032 M313.944 286.300 C 312.793 287.689,312.306 288.400,312.504 288.400 C 312.614 288.400,313.186 287.770,313.773 287.000 C 314.863 285.571,314.995 285.032,313.944 286.300 M138.805 287.073 C 138.808 287.253,139.457 287.819,140.248 288.332 C 141.040 288.845,141.572 289.078,141.431 288.851 C 141.041 288.218,138.799 286.701,138.805 287.073 M150.300 289.029 C 149.695 289.357,149.200 289.710,149.200 289.813 C 149.200 290.199,149.832 289.957,150.800 289.200 C 151.989 288.270,151.811 288.209,150.300 289.029 M90.845 292.500 C 94.692 297.197,109.625 311.569,109.588 310.537 C 109.581 310.352,108.727 309.570,107.691 308.800 C 105.246 306.984,93.016 294.754,91.200 292.309 C 90.430 291.273,89.648 290.419,89.463 290.412 C 89.277 290.406,89.899 291.345,90.845 292.500 M252.716 291.026 C 253.208 291.371,254.102 291.578,254.705 291.486 C 255.737 291.329,255.726 291.316,254.524 291.260 C 253.822 291.227,253.136 291.020,253.000 290.800 C 252.864 290.580,252.543 290.400,252.287 290.400 C 252.031 290.400,252.224 290.682,252.716 291.026 M304.389 297.634 C 302.342 299.852,298.877 303.294,296.688 305.282 C 294.500 307.270,292.906 308.830,293.145 308.748 C 294.360 308.334,309.098 293.600,308.298 293.600 C 308.195 293.600,306.436 295.415,304.389 297.634 M110.131 311.088 C 110.859 312.266,126.000 322.897,126.000 322.230 C 126.000 322.131,124.425 321.024,122.500 319.770 C 120.575 318.515,117.292 316.209,115.204 314.645 C 113.116 313.080,111.061 311.544,110.637 311.231 C 110.214 310.918,109.986 310.854,110.131 311.088 M286.785 313.632 L 285.400 314.863 286.688 314.013 C 287.830 313.259,288.693 312.400,288.308 312.400 C 288.232 312.400,287.547 312.954,286.785 313.632 M283.575 316.032 L 282.200 317.248 283.600 316.325 C 284.370 315.818,285.075 315.357,285.167 315.301 C 285.258 315.246,285.247 315.114,285.142 315.008 C 285.036 314.903,284.331 315.364,283.575 316.032 M276.593 320.656 C 274.552 322.009,273.832 322.723,275.426 321.814 C 276.830 321.014,278.701 319.622,278.393 319.609 C 278.279 319.604,277.469 320.075,276.593 320.656 M126.800 322.820 C 128.187 323.761,128.978 324.035,128.000 323.236 C 127.450 322.786,126.820 322.417,126.600 322.415 C 126.380 322.413,126.470 322.596,126.800 322.820 M271.200 324.036 C 270.536 324.579,270.469 324.715,271.000 324.440 C 272.305 323.766,273.028 323.212,272.600 323.215 C 272.380 323.217,271.750 323.586,271.200 324.036 M129.200 324.190 C 129.200 324.294,129.785 324.665,130.500 325.014 L 131.800 325.648 130.800 324.833 C 129.837 324.048,129.200 323.792,129.200 324.190 M149.080 333.603 C 150.860 334.395,156.591 336.348,159.600 337.190 C 160.590 337.466,161.850 337.837,162.400 338.014 C 162.950 338.190,163.940 338.435,164.600 338.557 C 166.036 338.822,164.992 338.329,162.800 337.706 C 158.593 336.510,157.559 336.201,155.000 335.375 C 153.460 334.877,151.248 334.094,150.085 333.635 C 147.480 332.606,146.788 332.585,149.080 333.603 M240.200 337.200 L 239.000 337.505 240.076 337.553 C 240.668 337.579,241.264 337.420,241.400 337.200 C 241.536 336.980,241.592 336.821,241.524 336.847 C 241.456 336.873,240.860 337.032,240.200 337.200 M166.033 338.947 C 166.125 339.028,166.920 339.214,167.800 339.362 C 168.946 339.554,169.230 339.514,168.800 339.221 C 168.260 338.853,165.632 338.593,166.033 338.947 M230.696 339.584 C 229.868 339.744,229.081 339.986,228.946 340.121 C 228.603 340.464,231.669 339.964,232.400 339.558 C 233.091 339.174,232.787 339.178,230.696 339.584 M169.633 339.747 C 169.725 339.828,170.520 340.014,171.400 340.162 C 172.546 340.354,172.830 340.314,172.400 340.021 C 171.860 339.653,169.232 339.393,169.633 339.747 M175.000 340.800 C 176.876 341.277,177.939 341.277,177.200 340.800 C 176.870 340.587,175.970 340.431,175.200 340.453 L 173.800 340.495 175.000 340.800 M226.100 340.676 C 226.485 340.776,227.115 340.776,227.500 340.676 C 227.885 340.575,227.570 340.493,226.800 340.493 C 226.030 340.493,225.715 340.575,226.100 340.676 M178.433 341.344 C 178.525 341.424,179.680 341.605,181.000 341.747 C 182.643 341.924,183.211 341.880,182.800 341.609 C 182.261 341.252,178.032 340.996,178.433 341.344 M220.000 341.613 C 219.354 341.829,219.780 341.866,221.200 341.719 C 222.410 341.594,223.475 341.426,223.567 341.346 C 223.887 341.065,220.991 341.283,220.000 341.613 M184.833 342.147 C 184.925 342.228,186.620 342.393,188.600 342.514 C 190.695 342.642,191.698 342.601,191.000 342.414 C 189.806 342.096,184.515 341.867,184.833 342.147 M212.800 342.417 C 211.935 342.609,212.546 342.646,214.400 342.512 C 216.050 342.393,217.475 342.229,217.567 342.148 C 217.858 341.890,214.257 342.093,212.800 342.417 M201.715 343.096 C 202.988 343.176,204.968 343.175,206.115 343.094 C 207.262 343.014,206.220 342.949,203.800 342.950 C 201.380 342.951,200.442 343.016,201.715 343.096 " stroke="none" fill="#9c846c" fill-rule="evenodd"></path></g></svg>